/* XPM */
static char *_2f76ad2768e402bad637451d0de3d47y31Pp9SYgIL6GkMO[] = {
/* columns rows colors chars-per-pixel */
"64 64 159 2 ",
"   c #342615",
".  c #362A14",
"X  c #392C15",
"o  c #372C1A",
"O  c #3C2E1C",
"+  c #3A3017",
"@  c #3C311C",
"#  c #3F2F20",
"$  c #3B3323",
"%  c #432F16",
"&  c #402F1D",
"*  c #43331C",
"=  c #47391F",
"-  c #49381C",
";  c #433422",
":  c #4B3523",
">  c #453923",
",  c #4B3C24",
"<  c #4F3E2B",
"1  c #503A22",
"2  c #4F4126",
"3  c #4D412B",
"4  c #544329",
"5  c #5A452D",
"6  c #5D4B2C",
"7  c #5F502F",
"8  c #5A4631",
"9  c #5D4B32",
"0  c #624D2D",
"q  c #66542E",
"w  c #68542F",
"e  c #634E33",
"r  c #684F30",
"t  c #654F38",
"y  c #665233",
"u  c #6A5434",
"i  c #675837",
"p  c #6B5935",
"a  c #655438",
"s  c #6C5539",
"d  c #6D5A3B",
"f  c #705537",
"g  c #715936",
"h  c #7A5E37",
"j  c #735C3C",
"k  c #785E3C",
"l  c #7A6236",
"z  c #75623D",
"x  c #7B623D",
"c  c #6C5B41",
"v  c #715D40",
"b  c #795F41",
"n  c #746243",
"m  c #7D6341",
"M  c #80673F",
"N  c #816744",
"B  c #836946",
"V  c #856C4A",
"C  c #967C45",
"Z  c #997E47",
"A  c #9C7F48",
"S  c #9D844C",
"D  c #9F8650",
"F  c #A2854E",
"G  c #A78949",
"H  c #AB8B4F",
"J  c #B28D4F",
"K  c #A48750",
"L  c #AA8754",
"P  c #A48952",
"I  c #AC8C55",
"U  c #A4865B",
"Y  c #A6895D",
"T  c #AE8E59",
"R  c #B38E55",
"E  c #B68F58",
"W  c #B38D5E",
"Q  c #B58F5F",
"!  c #B28E59",
"~  c #AF9057",
"^  c #AE905A",
"/  c #AE915A",
"(  c #B49052",
")  c #B19157",
"_  c #B29257",
"`  c #B49054",
"'  c #B59155",
"]  c #B79057",
"[  c #B69256",
"{  c #B39056",
"}  c #B99257",
"|  c #B0915A",
" . c #B1925B",
".. c #B59059",
"X. c #B79059",
"o. c #B69258",
"O. c #B5905B",
"+. c #B6915A",
"@. c #B7925B",
"#. c #B3945B",
"$. c #B7945A",
"%. c #B0905F",
"&. c #B1935F",
"*. c #B2925F",
"=. c #B5905C",
"-. c #B4905E",
";. c #B6905F",
":. c #B7935F",
">. c #B7975C",
",. c #B6965D",
"<. c #B5955F",
"1. c #B6955F",
"2. c #B7945E",
"3. c #B4925C",
"4. c #BA935A",
"5. c #BB945B",
"6. c #BC955C",
"7. c #BD965D",
"8. c #B8945E",
"9. c #B6985E",
"0. c #B8985F",
"q. c #B28D60",
"w. c #AF9364",
"e. c #B09260",
"r. c #B39361",
"t. c #B09162",
"y. c #B79361",
"u. c #B49262",
"i. c #B59363",
"p. c #B49461",
"a. c #B49660",
"s. c #B79661",
"d. c #B69761",
"f. c #B59763",
"g. c #B69663",
"h. c #B49664",
"j. c #B69461",
"k. c #BA9560",
"l. c #B89761",
"z. c #B89464",
"x. c #BB9564",
"c. c #B89764",
"v. c #BC9665",
"b. c #BD9766",
"n. c #BA9661",
"m. c #B69866",
"M. c #B79861",
"N. c #B99A61",
"B. c #BA9963",
"V. c #B99A64",
"C. c #BB9A64",
"Z. c #BC9963",
"A. c #BF9E68",
"S. c #C09C67",
"D. c #C4A36D",
"F. c #C8A36E",
"G. c #C7A670",
"H. c #CAA670",
"J. c #CCA873",
/* pixels */
"s u y u s y s q o O * ; s u y u y s u u y y y 0 * $ # @ $ O @ @ # O & & t u u u u u s u = O O * u j j s y u u u p w s g u p g s ",
"s p p y s r u 6 + X + * y u w u u u u u u u y e & & & O * @ O & @ $ @ * y p s u u u p p * X + + u p j p p u u u u d j d p p u j ",
"q p p q u r u 0 X . . * e y y y q q e 0 0 q 6 0 . . X X . . X . .     X 9 e y r a s y e * o     y u p y y q y 0 y d u u i p p p ",
"p p p p N l x j 5 5 5 0 x x k m x x x x l x l l 8 8 8 8 8 8 8 8 5 5 5 0 k k m m m m m x 0 5 0 5 m N B B m N m m m N l N p y u u ",
"y 0 w l u.z.g.u.&.T w.u.V.1.1.s.y.i.i.i.i.i.g.p.#.4.4.#.4.#.4.../ Y L L  .{ { ~ 1.1.#.0.p.h.s.1.s.N.Z.N.Z.N.N.V.m.1.s.w.x 0 q 0 ",
"f y y x :.' ' E R ! ! R R R R R E R E E E ..E ' ....E E ] 4.X.E R R R ! R J J J R J ( ( { ....R 4.4.5.5.7.7.7.7...I ' s.l 6 y r ",
"u u s x u.R R ..! ! Q q...1.y.z...0...#...5.[ [ #.&.#./ #.T #.T I L T L T ! ! &.v.:.1.:.W :.&.R v.v.v.v.v.v.v.v.0.R { 1.h 0 r 0 ",
"6 6 6 g p.0.:.W H L I I I I T T T T T T T T ~ ~ ! ! ! ! ! ! T ! R I L I I I I I T I ~ I T T #.{  . .&.&.&.:.1.#.q.5.{ &.l 0 y q ",
"@ o o 4 f.[ 1.#.S S S S S S A F S S D S C C M G S S S S S Z Z S I I / D D S S F S S S S S S S S A S K S K S D D u.y.[  .m y y s ",
"; @ o 5 g.....I S S A S F S S S S D F S S C S G S D F S S Z S S P P / P D S S S S D S D S F S F A F S S K P K K T y.( #.m 7 i y ",
"o o . 5 p.0.z.#.S S Z A S S A A S S S S C M S M S S S S C Z S Z / P P P F F S F S S S F F F F F F A S F S P K K / :.( >.m y p y ",
"= : = e / R &.I S S S F F L K L P H L P S S G G F H L F F F F F P P / / F F P F K H I F F L F P L T I P F P S K T :.( 1.z 5 7 9 ",
"u p e n 1.( ..~ D K K I :.1.#.1.Z.A.A.Z.Z.N.Z.Z.C.A.C.C.Z.Z.Z.Z.A.A.Z.Z.z.1.1.0.Z.Z.Z.Z.N.N.s.z.z.Z.V.N.K K S S / y.{ / 5   X X ",
"y y 7 x #.J :.~ P P K I #.z.z.0.7.S.k.Z.k.S.k.Z.C.Z.Z.N.k.Z.Z.Z.N.M.S.k.0.0.z.5.Z.Z.Z.z.0.0.5.0.Z.S.A.A.K F S S T u.' p.5 . @ : ",
"u p a m #.' z. .P K K I E 0.' 4.Z.Z.Z.Z.S.Z.Z.S.Z.Z.Z.Z.Z.Z.Z.Z.f.0.Z.Z.5.1.z.0.Z.Z.Z.Z.k.k.k.N.7.Z.N.V.F S S K / :.R  .4   X o ",
"r y 8 b #.{ :.Y D K F P :.z.5.0.z.0.0.z.N.z.0.z.N.0.z.0.0.z.0.z.C.f.N.N.:.:.1.1.0.7.k.Z.z.0.z.7.k.Z.Z.A.F F S S ~ ! R s.0 ; > : ",
", < > t #.#...T Z S S F 0.Z.Z.z.....:.E v.1.0.5.&.#.! #.#.! ! #.#./ ! #.#.:.:.#.#.:.! E 5.:.Q k.Z.Z.k.Z.F F F S ~ :.R 1.x y q u ",
", , > e #.R :.R S S C F Z.Z.Z.N.......! N.z.z.1.E ! ! ! ! ! &.! E ! ! #.:.1.:.:.! E #.#.y.k.k.k.N.Z.S.Z.F S S F I &.R 1.x y y y ",
"< 4 , t #.! R T S S S F Z.Z.Z.z.:.! ....z.z.N.z.0.:.#.9.:.5.:.5.:.#...:.1.0.:.1.&.:.:.:.s.z.0.5.Z.Z.v.Z.F S S S ~ :.R :.z y w u ",
"> > * t  .! ..I Z S S F Z.7.Z.N...:.:.#.#.#.#.#.I / { _ T T T T T T / T ! #.#.#.T T I I ..1...:.z.k.k.N.F Z S S I :.' 1.l y y s ",
"@ + X 8 #.! ..! S S Z F Z.k.Z.z.:.....T F F F F P P F P P P P P S S S S S S F S F K F L T ..:.:.1.N.0.z.F Z S S I y.R :.x q q e ",
"O + . 8 #.#.:.I Z S S F Z.Z.Z.N.E ..&.! F A F F D P P D P P P D F S D F S S S S S S A F I #.#.E 0.0.0.1.F Z S Z I :.R 1.x a u y ",
"* @ . 8 #.Q 4.I S S S F Z.k.Z.N.&...&.&.A D K K D D P D P F D P S F S S S S S A D D F K / :...! :.0.5.z.F Z S Z ~ :.R 1.x q y u ",
"O @ . 5 #.E 0.T A S S F Z.Z.Z.N.:.E #.W S S D S P / P P P I I I P F L F L K K K D K S F I &.:.#.z.0.k.z.F Z Z Z ~ :.' #.j 0 6 y ",
"$ @ X 5 #.' ..T S S S F N.7.N.z.&...z.#.A S S S 0.z.7.z.Z.Z.0.k.S.S.S.S.C.C.Z.S.D S S F ~ ..:.! :.s.5.1.F S S S ~ ! R p.5 o @ @ ",
"O O . 8 #...:./ F F S P z.z.z.0...:.:.#.S S S S 7.0.k.0.N.Z.k.Z.S.S.S.C.Z.7.7.Z.F S S F #...:.! &.5.:.1.F S P S ! y.{ g.4 . o O ",
"O @ . 5 #.....T S F S F N.5.0.0.:.:.5.#.S S S S 0.z.Z.k.z.7.N.Z.S.S.S.S.Z.Z.N.Z.F D S F / :.:.#.:.1.0.1.P S K S T q...u.5 o @ * ",
"O O . 5 #.E ..T S D S P Z.S.A.0.&.&.5.T S S S S 7.k.0.Z.z.5.0.z.C.Z.C.Z.Z.Z.Z.N.F D F F I ..#.I 1.z.z.N.F S S F T y.R &.e * * : ",
"& $ X 5 1...:.T S S S P D.G.F.D.#.! ..#.S S S D Z.Z.Z.k.0.....:.1...:.:.k.7.Z.z.P S D F I ! I I 0.Z.k.N.F S F S I :.( N.N c n n ",
"O o . 5 #...:.#.D F S P G.J.J.D.#.! Q #.F S S F Z.Z.Z.Z.:...#.....! #...z.Z.N.7.P D P S L L I L 0.Z.k.Z.P S S S #.0.J #.V v z k ",
"& @ X 8 #.....! S D S I D.G.G.D.W #.E ! F S S F k.Z.Z.k...! ! &.:.#.#.:.k.Z.Z.Z.K K K F I H I I z.Z.Z.Z.P S S S I :.R { V v z k ",
"; ; O 8 >.' :.T F F S P D.F.F.D.#.! :.! F S S F N.k.Z.Z.:.#.! ..:.E #.4.z.Z.k.0.F K F K L H R I 0.Z.k.Z.K S S S T v.R ! V c j j ",
"y u y x  .R :.#./ / / / Z.S.Z.z.:.#...T F D S F z.k.z.5.:...&...#.! E :.z.Z.Z.7.S S S F I 4.! #.z.Z.Z.Z.A A F S R k.4.f.x y w s ",
"y w y x 1.R :./ / / / / Z.Z.Z.Z.#.! :.! S S S S 7.N.z.0.:.! E #...! ! &.0.Z.Z.N.S S S S / ..&.! Z.Z.k.N.G Z A S #.v.1.N.x y y u ",
"u w y k  .#.:.R / / / #.N.k.Z.N.! ! ..#.F S S F N.z.0.5.#.#.....&.#.! :.0.Z.Z.Z.S S S F ! ..:.#.Z.Z.Z.Z.F Z S S ! v.#.N.M y w s ",
"u w y x f.' s.I / P / I Z.Z.Z.z.#.! ..{ S S S F N.7.z.0.:.:.1...:...:.5.k.Z.Z.Z.F S S F I :...#.k.Z.Z.Z.F C S S / k...9.k y w u ",
"u q u x f.[ 1.R S S S S N.S.k.Z.#.T :.I Z S Z S Z.Z.Z.Z.Z.z.7.Z.Z.k.k.k.Z.Z.S.Z.P S S S ! :.! #.Z.Z.Z.Z.F S S S I y.{ s.k r u u ",
"u y y x 9.4.0.#.S S S S 0.S.k.N.! ! E T Z Z Z A Z.Z.Z.S.S.Z.Z.A.S.Z.S.Z.S.S.S.S.S S D S T E &.! Z.S.A.Z.K A S S I :.{ 1.k u y u ",
"u q y x N.#.#.~ S S S S Z.S.N.z.&.! :.T Z S C S Z.Z.Z.Z.Z.Z.C.C.Z.Z.k.S.Z.S.Z.Z.F S S F ! :.:.#.Z.S.Z.Z.K A F A I s.R 1.k y w u ",
"u y u x 9.#.9.P S S S S Z.S.z.N.#.! ..! Z Z S F k.z.7.0.N.N.7.0.7.z.0.0.Z.Z.Z.k.F S F F T ....! Z.Z.Z.Z.K A F S I :.R 0.k r w s ",
"e u 6 k T R E T D S D F 9.0.1.1.:.R #.T F A K S S S F S F S F S S F S S S S F D S D D S 1.0.1.k.Z.Z.Z.V.H S S D #.:.#.&.l y y u ",
"w p e m #.H T I S S S F 1.5...:.:.! &.! F S D D S S S D D S S S S S S S S S S S D D S F f.z.0.0.Z.Z.S.N.F S S S I W {  .k y y u ",
"0 q 6 k _ J ! I F S F F s.5.:.&...#.#.T A A D D S F S S S S S S D D F D S F F S A F S F 1.N.z.k.V.Z.A.N.F D S D { :.R s.x y q u ",
"y y 8 z 9.R I I S S F F s.0.y.1.:.! ! T L K K K F F F F F F F F F F F F F F F F L K F F 1.N.7.k.Z.Z.C.N.H D S D ~ y.{  .k e q y ",
"% X X 5 / { y./ S S S P Z.k.N.z.Q #.! &.W &.#.#.&...#.&.! #.! &.#.#.&.&.E &.&...T W / I N.z.z.7.N.Z.S.N.~ D D P I &.{ #.k 0 q e ",
"& @ o 5 / ..y.T S S S P Z.Z.Z.v.E ! E E 0.:.:.:.W ..! ..! ! E ! ....E E E E :.E 1. .:.#.z.5.k.k.z.Z.k.Z.P P P P { u.R :.k 0 q r ",
"# @ o 5 p.' W I F S F F N.Z.Z.N.E Q ! #.:...#.! ......! :.! ! ! ..#...#.:.! E E #.#.:.W 0.5.z.k.0.Z.S.z.I P P P I z.' &.h 0 q e ",
"$ + o 4 p.{ #.I F S S P k.S.Z.N.! :.....1.:.:.:.&...&.&.! #.#... .1.&.:.&.#.&.&.:.....E k.0.k.8.z.Z.Z.Z.P P P P I :.R #.g 0 6 0 ",
"O @ . 8 #...#./ S S F F S.b.Z.S.C.Z.C.0.1.#.:.:.s.N.N.z.Z.Z.Z.N.N.N.Z.Z.Z.N.N.0.N.A.A.Z.Z.z.N.N.7.0.k.N.K F F F ! Q :. .8 . @ ; ",
"O O . 5 #.R :.~ F S F F S.S.S.S.S.C.S.Z.0.0.0.:.N.z.Z.Z.Z.Z.Z.Z.Z.S.Z.Z.Z.Z.Z.C.A.S.S.S.Z.Z.Z.Z.7.0.7.z.F F A F ! 5...9.5 X @ O ",
"O @ . 8 #.! :./ S S S K A.S.Z.A.C.Z.C.C.5.:.5.:.k.k.7.Z.Z.Z.C.C.S.k.Z.k.Z.Z.C.Z.S.S.S.S.S.Z.Z.Z.N.z.N.N.F F S D T 5.E 9.5 . @ O ",
"# @ . 5 #.R #.T F F F K C.V.N.N.C.C.C.C.Q #.:.&.z.N.0.z.0.0.0.0.0.z.1.z.N.k.C.0.N.z.Z.Z.z.N.N.C.1.s.s.s.P P S D T Q W  .5 X $ & ",
"# o . 8 #.! ..T C C C C P F F F I P P P F F F S F F F F F F G S A F A F S G F F F F F F F F P F I I / / D P D P T E ! #.8 . O & ",
"$ @ . 5 #.' #.T Z Z C S S S S F P D P D S S D S F F D S S F D S Z Z Z Z S D D D F S S F D P P P P I D / P P P P T E T #.5   @ O ",
"$ @ X 8 #...#./ Z C C S S S S K P P P P S S S S S D S S S S D D S Z Z S S F D D S D F D D P P P I / D P D P D P T Q R #.5 . @ O ",
"O @ X 5 #.{ ..T A Z S S D D D S P P P P F S K F F F D S F F D S Z S Z S D F F F F S S F F P P P D / P P P I P P T E ! ..8 X $ ; ",
"1 < > y q.] 0.T R :.! E ! #.W W ! ..#.#.........H L L I L I L T R { R ..{ E ! { H L K H R ..#.~ E ! E ..! ! ..! w.#.:.T m 0 y y ",
"> < > y g.( R &.#.&.W &./ R #./ &.:.:.Q :.z.s.:.R L ! L I H R L Q &.&.W Q &.W :.L L L L ! :.W &.&.#.&.:.#.#.&.#.&.R R y.x y u u ",
", 3 ; q v.4.R &.E k.Q :.5.] 5.k.#.......1.0.4.1.L ! L ! R R R R ' #.! #.#.#.#.E L R H R #.:...1.z...#.0.Q :.1.:.4.] 4.v.l q y u ",
"2 4 , y Y I T T I I L K R J H I I T / R / #.T T F F F S G G F F T T I T I T T I F F F F I I I I I L L L H L I L Y Y Y U z u u u ",
"y y r s x g l u @ : ; < d d v c u p g s u f g y * * : : a s j v g u u p s g u g g g g g g g s j > : ; > : ; ; ; - - - = 0 y y q ",
"y u f s i p c a + o o = a a i y u y y u u u e e @ o O * a u u y y u u u y y y y y s e e y y y y * o . o X X + o o o o   e s s r ",
"q u s y p d d a O O & : d g j s y u q u u w y q @ O O * a p p u w w q q w w w w y u y w y u y u ; O @ * & & & & @ $ $ + e u u y ",
"y y u u j d i y @ + o = i w p p y y u y u u y y O & & & u u g u u u u w u y u u y u u y u y u y : @ o @ @ o @ o % X @ + 5 u u u "
};
