/* XPM */
static char *f1afdd2990ba4e1ddda905d5d8d8971eararpLts2bXegwPS[] = {
/* columns rows colors chars-per-pixel */
"64 64 20 1 ",
"  c #017E25",
". c #017F26",
"X c #E40202",
"o c #E40203",
"O c #E40303",
"+ c #F26208",
"@ c #FB8E00",
"# c #FC8C00",
"$ c #FD8C00",
"% c #C3D008",
"& c #C3D009",
"* c #FDED00",
"= c #FEED00",
"- c #FEE805",
"; c #750786",
": c #5618A6",
"> c #01678C",
", c #004CFE",
"< c #004DFE",
"1 c #004DFF",
/* pixels */
";;;;;;;;;;:,,,,,11111>......... %*********-@########$+oOOOOOOOOO",
";;;;;;;;;;:,,,,,11111>......... %*********-#########$+oOOOOOOOOO",
";;;;;;;;;;:,,1,,11111>......... %*********-@########$+OOOOOOOOOO",
";;;;;;;;;;:,,11,11111>......... %*********-@########@+OOOOOOOOOO",
";;;;;;;;;;:1,1111111,> ........ &*********-@#########+OOOOOOOOOO",
";;;;;;;;;;:,,1111111,> ........ &*********-##########+OOOOOOOOOO",
";;;;;;;;;;:,,111111,,>..........&*********-##########+oOOOOOOOOO",
";;;;;;;;;;:,,111111,,>..........&*********-##########+ooOOOOOOOO",
";;;;;;;;;;:1,11111111>......... %*********-@####$$$$@+OOOOOOOOOO",
";;;;;;;;;;:,,11111111>......... %*********-@####$$$$$+OOOOOOOOOO",
";;;;;;;;;;:,,11111111>......... &*********-@####$$$$$+OOOOOOOOOO",
";;;;;;;;;;:1,11111111>......... %*********-@####$$$$$+OOOOOOOOOO",
";;;;;;;;;;:,,1111111,> ........ %-********-@$$##$$$$$+oOOOOOOOOO",
";;;;;;;;;;:,,1111111,> ........ %-********-@$$##$$$$$+oOOOOOOOOO",
";;;;;;;;;;:,,111111,,> ........ %*********-@####$$$$$+OOOOOOOOOO",
";;;;;;;;;;:1,111111,,> ........ %*********-@####$$$$@+OOOOOOOOOO",
";;;;;;;;;;:,,11111111>......... &*********-@####$$$$$+oOOOOOOOOO",
";;;;;;;;;;:,,11111111>......... &*********-#####$$$$$+oOOOOOOOOO",
";;;;;;;;;;:,,1111111,>......... &*********-#####$$$$$+OOOOOOOOOO",
";;;;;;;;;;:1,1111111,>......... &*********-#####$$$$@+OOOOOOOOOO",
";;;;;;;;;;:,,1111111,>......... &*********-#####$$$$$+OOOOOOOOOO",
";;;;;;;;;;:,,1111111,>......... &*********-@####$$$$$+OOOOOOOOOO",
";;;;;;;;;;:1,1111111,>......... &*********-@####$$$$$+oOOOOOOOOO",
";;;;;;;;;;:,,11111,,,>......... &*********-@####$$$$$+oOOOOOOOOO",
";;;;;;;;;;:,,1111111,>......... &*********-@$###$$$$@+OOOOOOOOOO",
";;;;;;;;;;:,,1111111,>......... %*********-$####$$$$$+OOOOOOOOOO",
";;;;;;;;;;:1,1111111,>......... %*********-@####$$$$$+OOOOOOOOOO",
";;;;;;;;;;:1,1111111,>......... %********--@####$$$$$+OOOOOOOOOO",
";;;;;;;;;;:1<<,111111>......... %*********-$$$$$$$$$$+oOOOOOOOOO",
";;;;;;;;;;:1<<,,11111>......... %*********-$$$$$$$$$$+oOOOOOOOOO",
";;;;;;;;;;:1<,,,11111>..........%-********-@$$$$$$$$$+OOOOOOOOOO",
";;;;;;;;;;:1<<,,11111>..........%-********-$$$$$$$$$@+OOOOOOOOOO",
";;;;;;;;;;:,,1111111,> ........ %*********-$$$$$$$$$$+ooooOOOOOO",
";;;;;;;;;;:1,1111111,> ........ %*********-@$$$$$$$$$+ooooOOOOOO",
";;;;;;;;;;:,,1111111,>......... %-********-$$$$$$$$$$+oooooOOOOO",
";;;;;;;;;;:,,11111,,,>......... %*********-@#$$$$$$$$+oooooOOOOO",
";;;;;;;;;;:,,1111111,>......... %*********-$#$$$$$$$$+ooOOOOOOOO",
";;;;;;;;;;:1,1111111,>......... %*********-@#$$$$$$$$+ooOOOOOOOO",
";;;;;;;;;;:,,1111111,> ........ %*********-@#$$$$$$$$+ooOOOOOOOO",
";;;;;;;;;;:,,1111111,> ........ %*********-@#$$$$$$$$+ooOOOOOOOO",
";;;;;;;;;;:,,11111111>......... &*********-$#$$$$$$$@+OOOOOOOOOO",
";;;;;;;;;;:1,11111111>......... &*********-$#$$$$$$$$+OOOOOOOOOO",
";;;;;;;;;;:,,1111111,>......... &*********-$#$$$$$$$$+OOOOOOOOOO",
";;;;;;;;;;:,,1111111,>......... &*********-$#$$$$$$$$+OOOOOOOOOO",
";;;;;;;;;;:1,1111111,>......... &*********-@$$$$$$$$#+oOOOOOOOOO",
";;;;;;;;;;:,,1111111,>......... %*********-@#$$$$$$$#+oOOOOOOOOO",
";;;;;;;;;;:,,1111111,>......... %*********-##$$$$$$$$+OoOOOOOOOO",
";;;;;;;;;;:,,11111,,,>......... %*********-##$$$$$$$@+OoOOOOOOOO",
";;;;;;;;;;:11,1111111>......... &*********-@####$$$$$+oOOOOOOOOO",
";;;;;;;;;;:,1,1111111>......... &*********-#####$$$$$+oOOOOOOOOO",
";;;;;;;;;;:,,11111111>......... &*********-#####$$$$$+OOOOOOOOOO",
";;;;;;;;;;:,,11111111>......... &*********-#####$$$$@+OOOOOOOOOO",
";;;;;;;;;;:1,1111111,> ........ &*********-@####$$$$$+OOOOOOOOOO",
";;;;;;;;;;:,,1111111,> ........ &*********-#####$$$$$+OOOOOOOOOO",
";;;;;;;;;;:,,111111,,>..........&*********-@####$$$$$+oOOOOOOOOO",
";;;;;;;;;;:1,111111,,>..........&*********-@####$$$$$+oOOOOOOOOO",
";;;;;;;;;;:<<<<<11111>......... &*********-$####$$$$@+OOOOOOOOOO",
";;;;;;;;;;:1<<,<11111>......... %*********-$####$$$$$+OOOOOOOOOO",
";;;;;;;;;;:1,1,,11111>......... %*********-$####$$$$$+OOOOOOOOOO",
";;;;;;;;;;:1,1,,11111>......... %*********-@####$$$$$+OOOOOOOOOO",
";;;;;;;;;;:,,1111111,> ........ %*********-@$$$$$$$$$+oOOOOOOOOO",
";;;;;;;;;;:,,1111111,> ........ %*********-$$$$$$$$$$+oOOOOOOOOO",
";;;;;;;;;;:,,11111,,,> .......  %-********-@$$$$$$$$$+OOOOOOOOOO",
";;;;;;;;;;:1,111111,,> ......   %-********-$$$$$$$$$@+OOOOOOOOOO"
};
