/* XPM */
static char *_a2e3f483ffc4501806e328bb06f88b922rZdq4xGnbjrO0e[] = {
/* columns rows colors chars-per-pixel */
"64 64 25 1 ",
"  c #017E25",
". c #017F26",
"X c #E40202",
"o c #E40203",
"O c #E40303",
"+ c #F26208",
"@ c #FB8D00",
"# c #FA8E00",
"$ c #FB8E00",
"% c #FC8C00",
"& c #FD8C00",
"* c #C3D008",
"= c #C3D009",
"- c #FDEC00",
"; c #FDED00",
": c #FDEC01",
"> c #FEED00",
", c #FEE805",
"< c #750786",
"1 c #5618A6",
"2 c #01678C",
"3 c #01678D",
"4 c #004CFE",
"5 c #004DFE",
"6 c #004DFF",
/* pixels */
"OOOOOOOOOOOOOOOOOOOOOOOOOOOOOOOOOOOOOOOOOOOOOOOOOOOOOOOOOOOOOOOO",
"OOOOOOOOOOOOOOOOOOOOOOOOOOOOOOOOOOOOOOOOOOOOOOOOOOOOOOOOOOOOOOOO",
"OOOOOOOOOOOOOOOOOOOOOOOOOOOOOOOOOOOOOOOOOOOOOOOOOOOOOOOOOOOOOOOO",
"OOOOOOOOOOOOOOOOOOOOOOOOOOOOOOOOOOOOOOOOOOOOOOOOOOOOOOOOOOOOOOOO",
"OOOOOOOOOOOOOOOOOOOOOOOOOOOOOOOOOOOOOOOOOOOOOOOOOOOOOOOOOOOOOOOO",
"OOOOOOOOOOOOOOOOOOOOOOOOOOOOOOOOOOOOOOOOOOOOOOOOOOOOOOOOOOOOOOOO",
"OOOOOOOOOOOOOOOOOOOOOOOOOOOOOOOOOOOOOOOOOOOOOOOOOOOOOOOOOOOOOOOO",
"OOOOOOOOOOOOOOOOOOOOOOOOOOOOOOOOOOOOOOOOOOOOOOOOOOOOOOOOOOOOOOOO",
"OOOOOOOOOOOOOOOOOOOOOOOOOOOOOOOOOOOOOOOOOOOOOOOOOOOOOOOOOOOOOOOO",
"OOOOOOOOOOOOOOOOOOOOOOOOOOOOOOOOOOOOOOOOOOOOOOOOOOOOOOOOOOOOOOOO",
"++++++++++++++++++++++++++++++++++++++++++++++++++++++++++++++++",
"&&&&&&&&&&&&&&&&%%%%%%%%%%%%%%&&&&&%&&&&&&&&&&&&&&&&&&&&&&&&&&&&",
"&&&&&&&&&&&&&&&&%%%%%%%%%%%%&&&&&&&&&&&&&&&&&&&&&&&&&&&&&&&&&&&&",
"&&&&&&&&&&&&&&&&%%%%%%%%%%%%&&&&&&&&&&&&&&&&&&&&&&&&&&&&&&&&&&&&",
"&&&&&&&&&&&&&&&&%%%%%%%%%%%%&&&&&&&&&&&&&&&&&&&&&&&&&&&&&&&&&&&&",
"&&&&&&&&&&&&&&&&%%%%%%%%%%%%&&&&&&&&&&&&&&&&&&&&&&&&&&&&&&&&&&&&",
"&&%%%%%%&&&&&&&&&&&&&&&&&&&&&&&&&&&&&&&&&&&&&&&&&&&&&&&&&&&&&&&&",
"&&%%%%%%&&&&&&&&&&&&&&&&&&&&&&&&&&&&&&&&&&&&&&&&&&&&&&&&&&&&&&&&",
"&&&%%%%%&&$$&&&&&&&&&&&&&&&$&&&&&&&&&&&&&&&&&&$@&&&&&&$$&&&&&&&&",
"&&@%%%%%&&@$&&&&@&@&&@&@&&&$&&&@&&&&&&$$@&&&&&$$&&&&&&&$&&&&&@&@",
"$$$$%%&@$$$$$$$$$$$$@@@@$$$$@$$$$@@@$$$$@@@@$$$@&&@@@$$$$$$$@@@@",
",,,,,,,,,,,,,,,,,,,,,,,,,,,,,,,,,,,,,,,,,,,,,,,,,,,,,,,,,,,,,,,,",
"-------->>>>-->>-------->>>>-->>---->>>>---->>>>------>>-->>----",
">------->>>>>>>>>------->>>>>>>>>--->>>----->>>>------>>>->>>---",
">>>>>>>>>>>>>>>>>>>>>>>>>>>>>>>>>>>>>>>>>>>>>>>>>>>>>>>>>>>>>>>>",
">>>>>>>>>>>>>>>>>>>>>>>>>>>>>>>>>>>>>>>>>>>>>>>>>>>>>>>>>>>>>>>>",
">>>>>>>>>>>>>>>>>>>>>>>>>>>>>>>>>>>>>>>>>>>>>>>>>>>>>>>>>>>>>>>>",
">>>>>>>>>>>>>>>>>>>>>>>>>>>>>>>>>>>>>>>>>>>>>>>>>>>>>>>>>>>>>>>>",
">>>>>>>>>>>>>>>>>>>>>>>>>>>>>>>>>>>>>>>>-->>>>>>>>>>>>>>>>>>>>>>",
">>>>>>>>>>>>>>>>>>>>>>>>>>>>>>>>>>>>>>>>;;>>>>>>>>>>>>>>>>>>>>>>",
">--->------>--->--->-:>-:---:->:->-----:>>::>>:->--->------>--->",
"*****************===****=***=**=**======**=*********************",
"              ..             ...........                        ",
"................................................................",
"................................................................",
"................................................................",
"................................................................",
"................................................................",
"................................................................",
"................................................................",
"................................................................",
"  .... .....  ..  ....  .... ............   ............  ....  ",
"2223232223332233223333223333222322223333232232332233223222233322",
"4444444466664444444444446666444444446666444466664444446644444444",
"6666466666666666666646666666666644666666466666664666666666666666",
"6666666666666666666646666666666644666666666666664666666666666666",
"6666666666666666666666666666666644666666666666666666666666666666",
"6666666666666666666666666666666644666666666666666666666666666666",
"6666666666666666666666666666444466666666666644556666666666666666",
"6666666666666666666666666666444466666666666644556666666666666666",
"6666666666666666666466666666555566666666664444556666666666666666",
"4444444444444444444644444444555544444444444444554444444444444444",
"6444644466664446444644644466666546444644464465556444644666664446",
"1111111111111111111111111111111111111111111111111111111111111111",
"<<<<<<<<<<<<<<<<<<<<<<<<<<<<<<<<<<<<<<<<<<<<<<<<<<<<<<<<<<<<<<<<",
"<<<<<<<<<<<<<<<<<<<<<<<<<<<<<<<<<<<<<<<<<<<<<<<<<<<<<<<<<<<<<<<<",
"<<<<<<<<<<<<<<<<<<<<<<<<<<<<<<<<<<<<<<<<<<<<<<<<<<<<<<<<<<<<<<<<",
"<<<<<<<<<<<<<<<<<<<<<<<<<<<<<<<<<<<<<<<<<<<<<<<<<<<<<<<<<<<<<<<<",
"<<<<<<<<<<<<<<<<<<<<<<<<<<<<<<<<<<<<<<<<<<<<<<<<<<<<<<<<<<<<<<<<",
"<<<<<<<<<<<<<<<<<<<<<<<<<<<<<<<<<<<<<<<<<<<<<<<<<<<<<<<<<<<<<<<<",
"<<<<<<<<<<<<<<<<<<<<<<<<<<<<<<<<<<<<<<<<<<<<<<<<<<<<<<<<<<<<<<<<",
"<<<<<<<<<<<<<<<<<<<<<<<<<<<<<<<<<<<<<<<<<<<<<<<<<<<<<<<<<<<<<<<<",
"<<<<<<<<<<<<<<<<<<<<<<<<<<<<<<<<<<<<<<<<<<<<<<<<<<<<<<<<<<<<<<<<",
"<<<<<<<<<<<<<<<<<<<<<<<<<<<<<<<<<<<<<<<<<<<<<<<<<<<<<<<<<<<<<<<<"
};
