/* XPM */
static char *ffc816a2c95f4168a7be9419324e38e8Irmqz7sOKKYcS3qc[] = {
/* columns rows colors chars-per-pixel */
"64 64 185 2 ",
"   c #5A4228",
".  c #5C4734",
"X  c #5F4C35",
"o  c #524A3D",
"O  c #5C4F3D",
"+  c #614B33",
"@  c #684F30",
"#  c #654D3A",
"$  c #695236",
"%  c #65523B",
"&  c #6C553C",
"*  c #6D593F",
"=  c #70543E",
"-  c #735B3D",
";  c #74663F",
":  c #5C5040",
">  c #654D43",
",  c #675740",
"<  c #6D5644",
"1  c #645945",
"2  c #6C5A43",
"3  c #6A564B",
"4  c #6C5C4A",
"5  c #745C43",
"6  c #7D5D44",
"7  c #705648",
"8  c #725D4A",
"9  c #785D4C",
"0  c #6E614C",
"q  c #746145",
"w  c #7B6344",
"e  c #786846",
"r  c #74634B",
"t  c #7B644B",
"y  c #7C6A4D",
"u  c #756353",
"i  c #7B6652",
"p  c #776A56",
"a  c #7D6B53",
"s  c #766B58",
"d  c #7D6E59",
"f  c #7F7352",
"g  c #7F715C",
"h  c #7E7264",
"j  c #816347",
"k  c #816B46",
"l  c #80664C",
"z  c #836B4D",
"x  c #8A6E4D",
"c  c #837046",
"v  c #83714D",
"b  c #8B714C",
"n  c #90784A",
"m  c #826555",
"M  c #846D53",
"N  c #8A6E53",
"B  c #846E59",
"V  c #896E5A",
"C  c #916E54",
"Z  c #857254",
"A  c #8B7355",
"S  c #8C7956",
"D  c #85735B",
"F  c #8C755B",
"G  c #8D7A5C",
"H  c #947455",
"J  c #997355",
"K  c #937A56",
"L  c #9B7C56",
"P  c #92765A",
"I  c #937B5C",
"U  c #9A7C5D",
"Y  c #857361",
"T  c #8C7661",
"R  c #867C61",
"E  c #8D7B62",
"W  c #877D6A",
"Q  c #8F7E6B",
"!  c #907663",
"~  c #947D62",
"^  c #9A7E62",
"/  c #947D6A",
"(  c #9B7F6A",
")  c #A17E61",
"_  c #8E805C",
"`  c #9B8057",
"'  c #93825D",
"]  c #9B825D",
"[  c #A0825E",
"{  c #8E8064",
"}  c #958264",
"|  c #9B8365",
" . c #978861",
".. c #9C8965",
"X. c #95836A",
"o. c #9C856B",
"O. c #958868",
"+. c #9D8A6C",
"@. c #9F9069",
"#. c #948671",
"$. c #9B8672",
"%. c #9E8B72",
"&. c #9D8D7A",
"*. c #9F9074",
"=. c #9D937D",
"-. c #A18465",
";. c #A28A66",
":. c #A88C65",
">. c #A1866A",
",. c #A18A6D",
"<. c #A38B6C",
"1. c #A48B6C",
"2. c #A58D6E",
"3. c #AA8E6A",
"4. c #A88A6E",
"5. c #A98D6D",
"6. c #A49166",
"7. c #A49169",
"8. c #A4916C",
"9. c #AA916E",
"0. c #A8966E",
"q. c #AF9A6D",
"w. c #A28772",
"e. c #A58671",
"r. c #A18971",
"t. c #A48870",
"y. c #A08C71",
"u. c #A38D72",
"i. c #A48C70",
"p. c #A18B76",
"a. c #A08F75",
"s. c #A48F74",
"d. c #A98E71",
"f. c #A98E72",
"g. c #AD8D74",
"h. c #A08979",
"j. c #A28E7A",
"k. c #A39371",
"l. c #A59574",
"z. c #A59675",
"x. c #AA9173",
"c. c #AD9370",
"v. c #AA9374",
"b. c #AB9474",
"n. c #A79877",
"m. c #AC9975",
"M. c #A39278",
"N. c #A5937A",
"B. c #A59679",
"V. c #A3937C",
"C. c #A89078",
"Z. c #AB957A",
"A. c #A99A7B",
"S. c #AC9A7C",
"D. c #B29470",
"F. c #B59775",
"G. c #B19976",
"H. c #B09278",
"J. c #B2967A",
"K. c #B5957E",
"L. c #B29A7C",
"P. c #B29B7C",
"I. c #B39C7C",
"U. c #B89B79",
"Y. c #B4A179",
"T. c #A59583",
"R. c #AB9582",
"E. c #AB9683",
"W. c #AD9B82",
"Q. c #AB9C8B",
"!. c #B29782",
"~. c #B29D82",
"^. c #B99F82",
"/. c #B39D89",
"(. c #AFA089",
"). c #B4A184",
"_. c #BAA384",
"`. c #B4A38A",
"'. c #BCA58B",
"]. c #BAA98F",
"[. c #BCAA91",
"{. c #BBAB98",
"}. c #C2AA8E",
"|. c #C2B29C",
" X c #C6B4A0",
/* pixels */
"o.,.u w P } A M A ^ 1.~ y A F | o.G F Z ' A S ..' y - b ,.....| G y M ~ F Z M I 1.p./ O.D G >.A z p.U.k.T D Y E F A I P b y *.D ",
"M -.B A A P M N | y.1.P A A k Z | | ' A i.y.%.O.O.B u / | ` | ..A 7 e I G z S ..8.l.;...G Z | A A c.+.;.y.$.#.~ P } | I S e o.E ",
"A 9.+.,.J A m F ,.K.g.} ^ | N 6 N >.) P L D.U...;.y.| ,.C b L [ | U U H T m ,.H.>.g.1.i.k t -.-.3.F.I -.k.z.o.~ ..;.` K ] A ;.%.",
"~ 9.o.I I e e Z O.z...| G } +.S Z } } ~ z } S.M.%.V.,.X./ X.+.O.T E / F 0 r O.j.%.&.R d s 0 R $.X.O./ N.E.h./ $.x.e.~ ~ ' S  . .",
"P L G A I 5 t B / i.P U ^ j A A N >.>.| V V p.t.} ) J J U ) 9.;.I ^ [ H A z A I ^ ,.V B E z ~ c.I N o.k.P.P N o.1.U K I U ) J U ",
"y V E M I x A G F F V U } M ~ X.~ >.;.I m ! i.%.>.| P A U ^ -.5.:.] | y.E F ~ F G | >.>.x.I } k.E E +.d.;.| A T I A I | } X.( ^ ",
"z T } N ^ P I } ~ I M N I ^ d.i.^ ^ >.;.~ P.x.;.;.| } ^ [ U U ^ ] } +.1.T ~ N.1.] | | +.i.A A F F O.E O.^ d.X.~ ! E G S G G I ^ ",
"G ,.} N >.I A ~ y.1.U U -.>.,.,.e.) I | y.d.,.;.| ;.D.L b x I -.o.;.-.| >.} 1.y.} P I 1.j.F ~ V D T.M._ o.o.V d T G } o.+.} ..| ",
"K ^ A L ,...} I | | ] -.9.;.;.1.1.P z G A I A +.U U 9.) x U g.Z.e.>.^ ^ >.I U U I P } >.j.G | ( / m...S } N.X.D Q %.E.V.j.o.k.-.",
"z N N -.+.+.} } | ' I U -.I G I >.;.i.S.o.C.I ^ d.| ) P U ;.9.| P T P I } >.-.} | b.d.~ o.J.>.U o.k.' ` A I F T u 4 u i 8 V ^ I ",
"S 1.o.| ] } I +.A.k.;.| ] I I A P } P M / x.~ I | ( o.A N ;.] K N V I I ;.1.>.1.;.X.X.P I | ^ >.d.i.I ` ] S ~ N.T . + 8 + # ~ d.",
"Z w.W.| U U | x.S.,.1.;.-.x.P.1.-.-.-.>.s.o.~ P A i.p.M m d.` L ^ ^ -.] ..I A ~ I M F / ^ | ,.X.R j.d.] ;.1.^ P Z y A A 3 q m._.",
"+ r V.,.J J P >.t.| >.^ -.-.-.-.-.-.L :.7.| I A ~ y.%.E m P.` n K P | | P I A F A ! C.R.%.y.&.d u #.E | y.o.m < k ' 6.] 3 E Y...",
"; x ^ s.d.x.,.R.k.A A w P -.-.U -.o.^ T ' K I A I ~ >.k.G ;.K A U U I -.m.1.m.,.A $.z./ ^ >.s.I Z T I -.-.A = j L [ ;.-.o : V.D ",
"' t.P & A N F Z / o.F A A -.K ] b.x.| ~ U P A A | | b.k.;.U | } I P x ;.| t Z / E / X.( | ,.S.y.7.,.^ U P k - A U b U x.B 2 `.z.",
"Z s.t.! o.| } e F m.+.;.5.x.I ^ | | i.%.~ ~ A | | Z P A ^ I c.} A +.;.t.V.G E ~ / o.>./ } -.;.;.O.O.K A I I j x | -.| ~ Z $ Z.J.",
"Z o.e.( >.Z.+.G G O.+.' ~ | | ,.F M y.X.I X.~ F Z q S ..I ^ +.N.*.+.d.| 1.s.k.X.~ ( | U G P >.| A S } I I ;.P A c.Z.~ < @ - 4._.",
"G ,.| ^ ;.x.+.+.} A } S M I &.m.~ F o.G I ~ G D %.O.O.+.^ ~ Z a e D | } | } i.b.| A x | ~ ~ Z.S.G Z I M I | U } | A r k | A y G ",
"} ,.o.} x.>.| | ~ I +.;.+.1.+.i.+.+.%.%.| | o.G } G G <.U ~ O.y 0 F A I .. .,.1.| A z I / / p.e.F D ~ M U | } I Z 9 M b.S.} y B ",
" .b.9...I A I P I | | 1.;.| } | N.+.E +.8.+.o.E D q A ;.I A o.%.E F y G } | o.A A | | ~ s.s.o.^ A S ~ I ~ ] ;.] ~ ~ ^ 9.m.O.+.G ",
"} 1.;.:.;.;.^ N H P I | -.P o.,.%.F q a -.| | z.G 2 F ..Z Z ! d.o.^ | | ~ X.X.D T s.j.o.o.Z.| I O.} ..-.^ I ' | 1.,.-.:._.~ ,.I ",
"3.| o.;.k.Z.o.N P ~ ~ O.F N Z.g.x.N.y r 8.` ,.P.} M } -.....U U.;.P x.y.F o.t.^ ! >.x.y.;.} c.;.,.] | ^ F o.l.-.A I | +.E.D Z F ",
"g.o.O.e.,.k.x.b.o.| | ;.T ~ i.m.P.).i.X.G.' ~ N.N.S.).+.' | I ^ U I 8.+.F %.x.| I ^ i.x.;.+.S.P.S.G A } D o.S.d.M k ~ x.A D | +.",
"} / o.p.^ | Z.~.,.X.+.1.~.E.,.,.I F +.z.;.b.y./ B E B.%.S.x.1.^ ^ z P ..( o.y.%.| ^ | 1.,.I } o.~.m.+.o.~ I X.>.! A i , E s.~.~.",
"P E N.&.P ;.z.O.D Z I | W._.b.d.m.1.+.' ..).z.F T o.%.o.y.,.y.I g.I P | d.~ G +.i.I I >.1.S ~ ~ ~ ~ T | o.o.1.o.~ } { a p.'.~.1.",
"K E o.~ A c.Z.&.N.+.~ ;.`.~.o.+.P.-.| 8.-.1.~ P o.| O.%.o.} ~ & ~ d.;.| x.~ G 8.1.I U G.>.>.w.F V ~ ( d.;.i.b.b.i.k.+.S E m.x.| ",
";.} / } } ^ Z T N.%.N A X.,.| } i.k.o.k.I.~ M | b.-.| d.I.;.~ - A o.o.1.| O.} +.>.U A K -.| | C.'.'.i._.o.} | :.3...| ' D  .b.m.",
"J.y.;.Z.,.E D $.R.p.} | Z.c.,.t.x.k.k.S.&.B i i.Z.1.1.1.5.| o.1.i.o.I ..} E Z y N H P } o...z.m.p.P.o.x.J.c.1.d.c.;.] 0.+.E b.y.",
"g.X.~ o.O.I N./.$.V o.~.b._._.I.,.~ z.A.#.Y d ! ,.s.k.d.] K ~ p.S.).o.S V.N.+.I C C I k.G G S.k.y E } o.M.P.P.F.I.9.9._.*.G m.G ",
"~ 6 G ;.I o.y.E D / | P.6.1.K.E.G f m.x.X.| >.| 5.,.A D k.,.| G ..].E.D M 1.x.H x I I ~ ~ ;. .a E h.} ..} ~ >.4.-.3.I.~.R X.O.D ",
"A N E G o.;.y.E u E 1.P.:.I >.d.} S k.>.A F ~ | | P I I y.1.X.~ } +.T ~ } | >.-.| -.I ~ i.Z.P q V.[.} I ~ ~ I K J :.P.} e { A.O.",
"x | ' A } 8.~.%.u V &.k.8.,.K.H.b.,.y.g.X.^ P ^ A M | >.S.~ w z ~ o.~ | P P o.1.| I ' s.o.x.| M t.).| n X.y.1.>.>.k.,.y Z ,.I.X.",
"v ~ Z b +.k.O.O.Q $.$.~ } ,.y.G 9.t.P ( F D F } A A | o.| P A ^ P } -.5.o.~ I G Z S o.1.o.>.^ x A +.| K A ( o.O.I } P ~ o.,.,.| ",
"Z A e x Z.~.y.o.Y D T G Z } } Z ;.s.F $.X.A ~ / ! ^ ~ A A } ;.c.| ` K K ;.| o.O.I I o.o.O.,.o.| t.:.U I F / x.| I x - ~ C.O.^ o.",
"I o.G } p.k.z.&.D Y o.z.} ~ z.+.O.P G N.,.o.m.j.+.,.~ A | ;.U ~ } K x L +.o.| O.! ~ ,.i.k.| ^ ;.:.;.} I q D S.x.k.| t ~ N./ p.o.",
"~ / y.,.y.o.o.o.E $.o.k.A.+.[.`.~ j ~ N.d.Z.P.y.I A I 1.>.;.A ~ ^ P b } Z.i.~ F A ~ o.+.| N D >.8.;.A q * 8 T | >.,.~ F %.N./.t.",
"D 9 T I o.X.~ F o.R.~ | -.I V.S.| H o.B.| o.A F } ~ | 8.I | >.!.w.~ ~ ~ S o.,.( ^ ! | I z ~ o.x.Y.] y a r r N ^ | t.*.f 5 O.W.,.",
"^ M I } ' +.I E ! j.N.i.I } o.A.1.| } o.| } F D $.V.h.s.A I ^ b.1.,.G F A I I 5.e.F / T u $.%.>.I.1.P } A F N j.m.x.R.).G a X.o.",
"d./ 1.D.k.z.z.X.9 M o.%.G o.'.[.f.| z.~.).+.Z F ( V F C.c.+.| :.;.1.;.t.P.x.| Z.L.X./ D T T A P 5.>.M A I | | f.p.M.E.].).&.X.D ",
"^ E ,.;.I ~ t.%.a A o.~ I } O.E X.^ <.X.} M.F M t i P A ~ | ,.~ | x._.m.S._.I.I.L.k.O.A 1.X.x.~ A | P x ~ | o.S.%.~ } k.`.X.q * ",
"N ~ d.| P } } V.%.i.i.;.A I a + N N A S o. .E F t t P A I ! I I S._._.>.V.%.G ~ k.p.+.o.-.I ^ m 9 F N ^ J.Z.| ~ I o.y.Z.`.X.% q ",
"U o.| U I } ~ +.<.o.I A k ' F $ z x P  .o.Z G i.~ N U ,.| N M | }.^.m.x.A.S.| S I ;.+.} P z ,.X./ ~.P.~ o.^ F ,.~.).z.k.[.%.2 E ",
">.w.6 e O.o.} 8.<.,.^ A S ' I y A U 5.+.A z ~ o.~ | ,.>.| A P ,._.x.f.P.W.S.N.o.~ G M M P V ~ / m M | | | 1.o.o.A._.x.+.|.E.r E ",
"4.k.8 w +.} G } ~ >.p.e.| +.+.I N -.x.1.^ } ~ ^ ( X.i.i.5.| | b.C.E.m.p.W.C.y.o.%.C.o.D &. XF 5 ~ A F p.,.S.P.~._._.1.k.|.Q.a E ",
"P z.N t A O.} | A F ! ) j.j.o.^ P | / Y P ;.^ ^ p.o.t.%.| H I Z.o.$.N.Z.V.y.c.S.S.~.%.D h {.D i >.^ ~ E M ,.L.P.).).+.8.{.V.r D ",
"k A z I | G | | | | } d.W.o.o./.%.i.<.I Z A ] 1.d.b.s.^ s.i.| f.o.+.N.`.E.m.>.>.e.Z./ a 4 p r D o.o.^ G M q F +.S.| >.J.~.G D E ",
"K | I +.I.,.} b A ;.<.| o.z.j./ M F o.+.~ G I I P ^ ;.o.I P } +.k.o.X.N.T.E.y.} >.C.V 7 M D r B ^ P I | ~ t 2 i m.,.| ,.G d Q S.",
"I ,.| e.:.>.| A P e.1.o.~ C.~.D M ~ | <.%.} ' | I ~ | ] } I +.G z.z.t.x.S.m.k.<.,.o.4 , ^ / Z A U I L -.| G t % y B z y r D o.N.",
"K d.x.i.I ^ | >.>.,.o.+.k.k.P.~ ,.o.I P X.X.o.| I A ^ >.;.u.z.Z } S.m.t.N.y.k.x.z./ % r ~ A A ~ | -.^ P } k 5 7 < < 5 w 2 G N.+.",
"A d.z.U x t M >.x.X.G } ,.~ o.^ L.m.^ ^ &.y.;.>.} ~ | ] ;.b.S.} D p.X.~ } G ~ &.p.E r E ( D D D N ~ o.F M - # 7 i Z t 5 q t j.f.",
"I 1...M M t 5 a F F E O.~ O.} I y.| M P } } | | I A P I ,.f.k.O.y E P ~ } O.~ } E D a X.V./ X.G y D T f 9 t 8 E j.o.F ,.V # F Z.",
"~ f.8.I / ~ M M A M G ~ I +.+.8.t.| D O.| I A A F } | ] | | ~ N B I | ;.,.d.X.} G E X.p.y.} &.y.! D y 4 Y T.N.A.S.C.X.s.X.7 r w.",
"z U 8.I E ~ A F ! A N M F ~ } n.G S G / ^ ^ U P I ! A k S P A M o.x.m.6.e.P.o.o.{ O.V.W.( A E } | ~ a a &.T.%.%.x.S.~ Z =.W r / ",
"0 > D ] G A I A z t A M z A p.o.q } I | U <.-.^ -.A G S $.p.V.o.S.b.G.q.H.Z.Z.o./ o.k.y.( / X.t A / 9 V / r A ;.;.%.%.2 R Q.R r ",
"#.7 l A F F | I K j F A e A o.~ q P } P P ~ o.I I } b.b.~.).).m.`.W.m.b.4.,.p.y.X.%.O.o.s.~ o.q z S & & 8 V | ] } / &.z.$.A.%.0 ",
"k.r N A A Z A A A x I G j A ! q $ P | P Z y i r / W.).Z.k.S.S.z.W.W.W.A.| ^ ,.o.$.o.O.p.+.F O.y y Z q w T o.i.y.o.E &.*.N.Z.V.g ",
"A m ) N F z e w t G ,.E I m M # & I ..| D d % O %.`.V.i.*.Y.Y.*.p.E.(.A.I | k.i.w.X./ o.o.Z D 5 G G 6 i } | +.t.Q u Q %.%.N.N.&.",
"v N g.x N I N q q P y.~ X.N i t Z G P w Q T.4 1 =.V.M.V.N.R.A.+.} M.A.B.;.k.p.X./ / T / W.N.Q r D F q T ~ ~ / +.$.u D V.~.[.[.O.",
"' P e.N M t./ Z y Z A T M a # A | A Z X O h 4 p Q.W.W.Z.Q.S.S._.S.x.o.....,.<.O.%.y./ A o.N.V.D G S y / p.G } &.&.D d F #.E X.=.",
"' } -.^ ~ X.~ o.S Z M D E / i j.W.).~.T W T.Y u &.N.z.@.W.M.+.m.k.z.1.x.7.| ~ ~ X.s.;.} o.X.X.D O.o.O.&./.O.z.+.o.O./ / O.X.X.[.",
"y x.I 1.N.Z B N.~ ! / F G G r D D %.D r } Q.W < F o.y.S.b.m.0.m.>.C.d.d.+.' G D G o.| I o.e f D G G O.=.j.j.N.G *.V.E ~ %.W.A.`.",
"-.x.^ | -.A N / T B A E +.D M 5 I D # # u u d T o.| ~ %.~.z.N.N.o./ +.+.+.*.,.A A | | G } } g { p G +.+.w.O.z.&.*.V.} } V.+.z.R.",
"^ z.<.o.o.I | | F M A A X.| y   V M T 3 h Q X.o.+.I A o.b.,.y.N.o.o.x.m.R.V.O.Z P ,.;.+.1.&.E D D E O.S.j.t.N.y.*.V.%.*./ G o.W.",
"^ z.I.;.G | d.;.I I ;.+.} | P 8 / / T / / T.X.F X.} G T ~ ^ } ,.k.,.k.M.%.o.F e y M D / y.G Y r Z +.V.&.j.M.y.~ E / T { F D o.Q."
};
