/* XPM */
static char *_5d0577fa04148b9fea14757a9f26240klgm7O2nHAW2AnLs[] = {
/* columns rows colors chars-per-pixel */
"64 64 89 1 ",
"  c #4C3C25",
". c #4D3D26",
"X c #503F27",
"o c #514028",
"O c #5B482D",
"+ c #5E4B2F",
"@ c #5F4C2F",
"# c #675233",
"$ c #695434",
"% c #695435",
"& c #695535",
"* c #6A5535",
"= c #6B5635",
"- c #6B5636",
"; c #6C5636",
": c #6C5736",
"> c #6D5837",
", c #6E5A38",
"< c #6F5B38",
"1 c #705B38",
"2 c #725C38",
"3 c #735C3A",
"4 c #725D3A",
"5 c #725E3A",
"6 c #735E3B",
"7 c #735F3B",
"8 c #745D3A",
"9 c #755F3B",
"0 c #775F3B",
"q c #75603B",
"w c #78633D",
"e c #79633D",
"r c #7B623D",
"t c #7C633E",
"y c #7D643E",
"u c #7E683F",
"i c #7D6640",
"p c #7E6740",
"a c #816840",
"s c #856B43",
"d c #846C43",
"f c #856C43",
"g c #957C49",
"h c #977D4A",
"j c #9B804B",
"k c #9B814C",
"l c #9C824C",
"z c #9F844E",
"x c #A0844E",
"c c #A1864E",
"v c #A4874F",
"b c #A3884F",
"n c #A38750",
"m c #A68653",
"M c #A38850",
"N c #A58850",
"B c #A88B52",
"V c #A88B53",
"C c #AE8C57",
"Z c #AF8C57",
"A c #AE8D57",
"S c #AD8C58",
"D c #AF8D58",
"F c #AE8C59",
"G c #B08D58",
"H c #B08E58",
"J c #B28F59",
"K c #B39159",
"L c #B2905A",
"P c #B3915B",
"I c #B6925A",
"U c #B6935B",
"Y c #B4925C",
"T c #B5925C",
"R c #B7945E",
"E c #B9945C",
"W c #B9955C",
"Q c #BA965D",
"! c #B8945E",
"~ c #BB985F",
"^ c #BC985F",
"/ c #BC9860",
"( c #BC9960",
") c #BE9A61",
"_ c #BF9A61",
"` c #C09B61",
"' c #C09B62",
"] c #C19C62",
"[ c #C19C63",
/* pixels */
"'''/NccccccccccccccN//]/]/[]WW/IMccN/]]]]']'''[[]]'''''''''/nccc",
"'''/NccccccccccccccN/]]]]]/'WWUUMccN//[/']''''/]]]'''''''''/nccc",
"'''/McccccccccccccMN))])/]['UUUIMccN/]]]]/]]']'[']''''[''''/nccc",
"'']/BNNNNMNbllllMNMN/)])////UIULbccN/////////]E[////''//'''/Nccc",
"''''//^^IIIDaeeaZIIUWWWIVNNNNMNMzbzbMvNNbbNBWWEIBNNNWW/W'''/Nccc",
"''''']''WWWHi44iDWUWWWUINvccccccbzbzbczbzbbbIIUInccnUWWW'''/Nccc",
"''''''''WUWHi67iDWU//UUUbbbccccczcbbbbbzbzMNII!INccnUU!W'''/Nccc",
"'''''''/UUUDieeaSIIHIUIINMbbNMNMvbbbbbBbNNNNI!IEllhcU!WW'''/Nccc",
"/[[/''[/nNnnllllMNMNMNNNJUUUUUUU^^^///)//)//WEEGi;3eU'[/'''/nccc",
"[[[[''[/MNcccccccccccccnUUUWUWUU]^]][_/_[___E!WZ1%#3/''['''/nvcc",
"['/['][/NcczcncczccMcccnUWWWWWIW[)]]/_)/_)_[!!!S3#%3U)'['''/nccc",
"!U/UWUUHlllllhllllljllllDDHHHDLLU/UWU//PP/P/HHHm3%%3S/UEWU!Ixlll",
"7939q9992414eeetwwwwweqiteyiiiiiiiiiiiiiq6944991$%:$6799iwiieete",
":%%%$$$$$$$>49q94qwqqqqq7w4w499<4wqqq4q6$&$%$%%*%::%%$%%4w44709w",
"**%%$$:$$$$$qq4qqq4wq4qq<q<q7w7w4w>qqqq6:%%$$$:$$%$$$$$$49w4w449",
"3933>24:44<4wwwewwwwiiiiiiiieeewiiiiwwwq6641>%::33394494wiiwyiii",
"UU!IllhhlhljlllllllcUU//WWUUllllIW!Unhlljjhgw44wmHGGDSGGGGHHWW/U",
"[['/nncvcccccccccccN/[)/''[/nnNN/''/ncccccNlwqqyH!!!WW!WEWWW''))",
"'''/NccccccccccccccN/[))'''/nncN/''/ncccbzcjwq4yZEEEUWWUEIIW[[)[",
"///!NcccllllcNNNnnnN///['''/nncn//]/NNnnbbncpiesZIIILIUIIIII////",
"NvnnccclpwwaZIIIIIIIWWWW/]'/NccNUWWWUUUIIIIIZHHZcNNNNNNMMNNNnnnN",
"vcvcccclw4qiG!!E!UW!WWWW'''/NccNUUWWWW!UWUUU!!!INccccccccccccccN",
"ccccccclwqqyGWW!!W!!!U!W']]/NccvUUW/UUUWUWWW/UUUnccccccccccccccc",
"NNvBnnncauwdGWWEWWWWW/WW/''/NcvvLIILIIUUHDDIWWW!BnNNNNNNNNNNNNNN",
"/^^//////U//!EEEE/'''''/'''/mcccnbvnNNMlaiis!'[/////////////////",
"'''][[/[/[)/EEJE[]'''''''''/nccccccccccle79iW])/[/[[''''/][/['''",
"))']))'/))[)!E/![['][[[[[['/nccccccccccle73i/)[)[')[''[[]/[[)[''",
"W/UWUU//J/UUGGGGUUWU!J!!/J/Jxllllllllllh763iSUU/U!J/U!UIW/WUWUWW",
"iiiiiiii07337333377737031399eeeewwwwtwwe*:*:339937079999iaiiiiii",
"7607717<;%******$%%%****%%$$1977qqqq9994:$:*****%%*:%%%%11777777",
"7777w771-;%*****:%$:******%%9177qqq44q94%:*%*$%*****:%$%77377777",
"iiiiiiii773333333333:***3333iiaiiiiiiiye3333333333333777iiiiieei",
"/U/W/W/WU//W/W/WP/USe47wglllUWUWU/WUHDHHHZZZZZGGIIWUE!IWU/WUllll",
")[/]/[/]/[/[/[/])[)/i77wlcnN/[[/)/]]WWU/!W!EEEWW'''[[['')/]/NNnz",
"[/]'[/]/))/]//]//['Ui96wlccN/[[[[]'/WI!!!WWWEWWW''''[['[[''/Nczc",
"/////////)//[//////IsiiacnnV///[////UIIIHUUUGGGG/'''///E///WNccc",
"NMbbNNNbVnMBNNNMVnNNW/UUIUIUWWWUNNNNnnNMnNNlaiisW[[/VnnBNNNNcccc",
"NnzbccbczzbMccMccncN/])[WU!UWUUUNcccncccccclw44iU[[/ncccMccccccc",
"bbbzcccbzbzbcccczvMM/]''W!U!UWIINcccccccccclw79i/[[/nccczMcccccc",
"bNvbNbbbbbbbMNNnNNvV/[//IIIILIIIMccccccccnncaiydU///BBnnbbMMcccc",
"~////UULIIIUIIUU~///]]]/NNNNMNnncccccccNLIILDHHHWWWWJEIIIIILbzbz",
"]][/UUWWWI!UUUWW])[//[]/NcNccccccccccccnIWWWWWWWWIEE!EI!UUUIvbzb",
"]]]_WWW!!WU!WWWW][[///[/NccvcccccccccccbIWWWWWUUUWWEEE!!WWWIbbbz",
"WUWUDDZDHHHSLZDHUUU///UIljjhlllllllllllzDDDZDLDLDHZGZGGGDDDDjllj",
"iiiy9991aiiiiiie73776w443331wweeeewwywwyyiiwiiyw43931773994wwwwy",
"7743$$$:17471993***$$$$$:$$$1w77749qqq4q4qqq<qw4:$$$%:**$$$$4qqq",
"7799%%$:77177793*%$$$$$$$$%:9767w999qqqqqqqqqqq4$$$$:%$$$%$$4q4q",
"iiiy9999iiiiiaii994661<63937eewwwwwwwwwwwwwwwwww9939:::$9444ippy",
"!!!!W/LU/UW/J//JWU/LllllLUUPzlllhlllllllhllllllzIUUSw44wHWU/PWU/",
"/''']]]])/)))[[)]]//ncMN/[[/NcncncccccccnccccccN/'[Uiqww/[[[))))",
"'''']]]/[)[/[))['''/nMcN////NcccccccccnzcccccccN/[[!i99iU[[[)[[[",
"'''/////WU//[[[)'']/NNMV/[[/NcccNNNnnnnnNNnncccN///UaeeaP///[[)/",
"WWWUnNnze33aU[[[[']'////[['/NccMW////IIUIUILMcccnnvNllllNNNNJ!EW",
"E!UINNnh3%%3J[[['['']]]'[['/NcMN/]]]WWUUWUIIMccccnccccccNccN!!!!",
"EWIInnnl2%#1![/[]/]]/['[]''/NccN/'/]WWUWUUWUNMcccvcvcccccccNIWEE",
"WWWUNNnz3:3eU///////]][/]''/NccN/'''WWWWUIILNMNNnnnnNNNNNNNNIWEE",
"//[/]///chhjvvvNvBvV^]'[][]/NlNN/]']//]/BnmvIIUU////////////[/[]",
"[[[)//))ncccvbbbccvv/][)[/'/Nncn/'[/]]]/ncvvUUWW/'[[/[''[/)[])[/",
"[]))[[//mccczbccccvN/[][[]'/NNcn//[[[)]/nccnUWUW'[[[[[/'][[))[[]",
"UW/U/WWLvjjzllljhjjjUWUUWWUIllllU/WU/U/UnhlnDDHHHUJHU!/IUU/PWUWW",
"iiiiypiwwqeyaady333>3930assa4434iaiieiiei0eeiia7@OO@39939939iiii",
"w666q96wq9qqyyyw:$**%$::iiie:$$%1770777777777771X..X#$%%$$%%6666",
"w4764q9qqq99tyyy******%*ttei:$%:6777770770777771X..X$$$:$:%17777",
"494wq4999q9qtyte:*****:%tttt:%:%6770707777070777X..X%%*$:$*;3777"
};
