/* XPM */
static char *_91328e1d8fa4dc8f26c06817486196cZQHt7LExqHJtIjCu[] = {
/* columns rows colors chars-per-pixel */
"64 64 256 2 ",
"   c #624B37",
".  c #55442E",
"X  c #654E3A",
"o  c #56452F",
"O  c #5A4933",
"+  c #594832",
"@  c #68513C",
"#  c #614A36",
"$  c #54432D",
"%  c #644C38",
"&  c #463823",
"*  c #69523D",
"=  c #644D39",
"-  c #483A24",
";  c #453721",
":  c #322819",
">  c #604834",
",  c #574530",
"<  c #5C4B35",
"1  c #584731",
"2  c #5F4834",
"3  c #69513D",
"4  c #624B36",
"5  c #443620",
"6  c #4D3F29",
"7  c #42341F",
"8  c #443621",
"9  c #483A25",
"0  c #4A3C26",
"q  c #493B25",
"w  c #5E4D37",
"e  c #53422C",
"r  c #5E4732",
"t  c #43351F",
"y  c #6F5843",
"u  c #654D39",
"i  c #664F3A",
"p  c #281F13",
"a  c #463822",
"s  c #67503B",
"d  c #574630",
"f  c #634C37",
"g  c #2A2A2A",
"h  c gray17",
"j  c #2C2C2C",
"k  c #2D2D2D",
"l  c gray18",
"z  c #2F2F2F",
"x  c gray19",
"c  c #313131",
"v  c #323232",
"b  c gray20",
"n  c #343434",
"m  c #353535",
"M  c gray21",
"N  c #373737",
"B  c gray22",
"V  c #393939",
"C  c #3A3A3A",
"Z  c gray23",
"A  c #3C3C3C",
"S  c gray24",
"D  c #3E3E3E",
"F  c #3F3F3F",
"G  c gray25",
"H  c #414141",
"J  c gray26",
"K  c #434343",
"L  c #444444",
"P  c gray27",
"I  c #464646",
"U  c gray28",
"Y  c #484848",
"T  c #494949",
"R  c gray29",
"E  c #4B4B4B",
"W  c #4C4C4C",
"Q  c gray30",
"!  c #4E4E4E",
"~  c gray31",
"^  c #505050",
"/  c #515151",
"(  c gray32",
")  c #535353",
"_  c gray33",
"`  c #555555",
"'  c #565656",
"]  c gray34",
"[  c #585858",
"{  c gray35",
"}  c #5A5A5A",
"|  c #5B5B5B",
" . c gray36",
".. c #5D5D5D",
"X. c gray37",
"o. c #5F5F5F",
"O. c #606060",
"+. c gray38",
"@. c #626262",
"#. c gray39",
"$. c #646464",
"%. c #656565",
"&. c gray40",
"*. c #676767",
"=. c #686868",
"-. c DimGray",
";. c #6A6A6A",
":. c gray42",
">. c #6C6C6C",
",. c #6D6D6D",
"<. c gray43",
"1. c #6F6F6F",
"2. c gray44",
"3. c #717171",
"4. c #727272",
"5. c gray45",
"6. c #747474",
"7. c gray46",
"8. c #767676",
"9. c #777777",
"0. c gray47",
"q. c #797979",
"w. c gray48",
"e. c #7B7B7B",
"r. c #7C7C7C",
"t. c gray49",
"y. c #7E7E7E",
"u. c gray50",
"i. c #808080",
"p. c #818181",
"a. c gray51",
"s. c #838383",
"d. c #848484",
"f. c gray52",
"g. c #868686",
"h. c gray53",
"j. c #888888",
"k. c #898989",
"l. c gray54",
"z. c #8B8B8B",
"x. c gray55",
"c. c #8D8D8D",
"v. c #8E8E8E",
"b. c gray56",
"n. c #909090",
"m. c gray57",
"M. c #929292",
"N. c #939393",
"B. c gray58",
"V. c #959595",
"C. c gray59",
"Z. c #979797",
"A. c #989898",
"S. c gray60",
"D. c #9A9A9A",
"F. c #9B9B9B",
"G. c gray61",
"H. c #9D9D9D",
"J. c gray62",
"K. c #9F9F9F",
"L. c #A0A0A0",
"P. c gray63",
"I. c #A2A2A2",
"U. c gray64",
"Y. c #A4A4A4",
"T. c #A5A5A5",
"R. c gray65",
"E. c #A7A7A7",
"W. c gray66",
"Q. c #A9A9A9",
"!. c #AAAAAA",
"~. c gray67",
"^. c #ACACAC",
"/. c gray68",
"(. c #AEAEAE",
"). c #AFAFAF",
"_. c gray69",
"`. c #B1B1B1",
"'. c #B2B2B2",
"]. c gray70",
"[. c #B4B4B4",
"{. c gray71",
"}. c #B6B6B6",
"|. c #B7B7B7",
" X c gray72",
".X c #B9B9B9",
"XX c gray73",
"oX c #BBBBBB",
"OX c #BCBCBC",
"+X c gray74",
"@X c gray",
"#X c gray75",
"$X c #C0C0C0",
"%X c #C1C1C1",
"&X c gray76",
"*X c #C3C3C3",
"=X c gray77",
"-X c #C5C5C5",
";X c #C6C6C6",
":X c gray78",
">X c #C8C8C8",
",X c gray79",
"<X c #CACACA",
"1X c #CBCBCB",
"2X c gray80",
"3X c #CDCDCD",
"4X c #CECECE",
"5X c gray81",
"6X c #D0D0D0",
"7X c gray82",
"8X c #D2D2D2",
"9X c LightGray",
"0X c gray83",
"qX c #D5D5D5",
"wX c gray84",
"eX c #D7D7D7",
"rX c #D8D8D8",
"tX c gray85",
"yX c #DADADA",
"uX c gray86",
"iX c gainsboro",
"pX c #DDDDDD",
"aX c gray87",
"sX c #DFDFDF",
"dX c gray88",
"fX c #E1E1E1",
"gX c #E2E2E2",
"hX c gray89",
"jX c #E4E4E4",
"kX c gray90",
"lX c #E6E6E6",
"zX c #E7E7E7",
"xX c gray91",
"cX c #E9E9E9",
"vX c #EAEAEA",
"bX c gray92",
"nX c #ECECEC",
"mX c gray93",
"MX c #EEEEEE",
"NX c #EFEFEF",
"BX c gray94",
"VX c #F1F1F1",
"CX c gray95",
"ZX c #F3F3F3",
"AX c #F4F4F4",
"SX c gray96",
"DX c #F6F6F6",
"FX c gray97",
"GX c #F8F8F8",
"HX c #F9F9F9",
"JX c gray98",
"KX c #FBFBFB",
"LX c gray99",
"PX c #FDFDFD",
"IX c #FEFEFE",
"UX c white",
/* pixels */
"& & & & a a a a p p p p a a a a a a a a 8 8 8 8 p p p p p p p p p p p p a a a a & & & & p p p p q q q q a a a a - - - - 9 9 9 9 ",
"& & & & a a a a p p p p a a a a a a a a 8 8 8 8 p p p p p p p p p p p p a a a a & & & & p p p p q q q q a a a a - - - - 9 9 9 9 ",
"& & & & a a a a p p p p a a a a a a a a 8 8 8 8 p p p p p p p p p p p p a a a a & & & & p p p p q q q q a a a a - - - - 9 9 9 9 ",
"& & & & a a a a p p p p a a a a a a a a 8 8 8 8 p p p p p p p p p p p p a a a a & & & & p p p p q q q q a a a a - - - - 9 9 9 9 ",
"a a a a f f f f # # # # f f f f f f f f f f f f f f f f f f f f > > > > # # # # f f f f f f f f i i i i i i i i f f f f 7 7 7 7 ",
"a a a a f f f f # # # # f f f f f f f f f f f f f f f f f f f f > > > > # # # # f f f f f f f f i i i i i i i i f f f f 7 7 7 7 ",
"a a a a f f f f # # # # f f f f f f f f f f f f f f f f f f f f > > > > # # # # f f f f f f f f i i i i i i i i f f f f 7 7 7 7 ",
"a a a a f f f f # # # # f f f f f f f f f f f f f f f f f f f f > > > > # # # # f f f f f f f f i i i i i i i i f f f f 7 7 7 7 ",
"p p p p = = = = o o o o , , , , d d d d e e e e d d d d . . . . < < < < d d d d d d d d d d d d d d d d + + + + % % % % a a a a ",
"p p p p = = = = o o o o , , , , d d d d e e e e d d d d . . . . < < < < d d d d d d d d d d d d d d d d + + + + % % % % a a a a ",
"p p p p = = = = o o o o , , , , d d d d e e e e d d d d . . . . < < < < d d d d d d d d d d d d d d d d + + + + % % % % a a a a ",
"p p p p = = = = o o o o , , , , d d d d e e e e d d d d . . . . < < < < d d d d d d d d d d d d d d d d + + + + % % % % a a a a ",
"a a a a f f f f + + + + u u u u s s s s s s s s s s s s s s s s s s s s X X X X s s s s i i i i @ @ @ @ d d d d f f f f p p p p ",
"a a a a f f f f + + + + u u u u s s s s s s s s s s s s s s s s s s s s X X X X s s s s i i i i @ @ @ @ d d d d f f f f p p p p ",
"a a a a f f f f + + + + u u u u s s s s s s s s s s s s s s s s s s s s X X X X s s s s i i i i @ @ @ @ d d d d f f f f p p p p ",
"a a a a f f f f + + + + u u u u s s s s s s s s s s s s s s s s s s s s X X X X s s s s i i i i @ @ @ @ d d d d f f f f p p p p ",
": : : :         o o o o s s s s f f f f i i i i f f f f f f f f f f f f u u u u f f f f X X X X s s s s d d d d f f f f a a a a ",
": : : :         o o o o s s s s f f f f i i i i f f f f f f f f f f f f u u u u f f f f X X X X s s s s d d d d f f f f a a a a ",
": : : :         o o o o s s s s f f f f i i i i f f f f f f f f f f f f u u u u f f f f X X X X s s s s d d d d f f f f a a a a ",
": : : :         o o o o s s s s f f f f i i i i f f f f f f f f f f f f u u u u f f f f X X X X s s s s d d d d f f f f a a a a ",
"p p p p f f f f . . . . s s s s f f f f d d d d + + + + O O O O d d d d d d d d d d d d f f f f i i i i . . . . f f f f a a a a ",
"p p p p f f f f . . . . s s s s f f f f d d d d + + + + O O O O d d d d d d d d d d d d f f f f i i i i . . . . f f f f a a a a ",
"p p p p f f f f . . . . s s s s f f f f d d d d + + + + O O O O d d d d d d d d d d d d f f f f i i i i . . . . f f f f a a a a ",
"p p p p f f f f . . . . s s s s f f f f d d d d + + + + O O O O d d d d d d d d d d d d f f f f i i i i . . . . f f f f a a a a ",
"p p p p f f f f d d d d i i i i = = = = o o o o i i i i s s s s * * * * s s s s d d d d f f f f X X X X d d d d f f f f p p p p ",
"p p p p f f f f d d d d i i i i = = = = o o o o i i i i s s s s * * * * s s s s d d d d f f f f X X X X d d d d f f f f p p p p ",
"p p p p f f f f d d d d i i i i = = = = o o o o i i i i s s s s * * * * s s s s d d d d f f f f X X X X d d d d f f f f p p p p ",
"p p p p f f f f d d d d i i i i = = = = o o o o i i i i s s s s * * * * s s s s d d d d f f f f X X X X d d d d f f f f p p p p ",
"p p p p % % % % d d d d y y y y f f f f d d d d s s s s f f f f f f f f s s s s 1 1 1 1 2 2 2 2 s s s s d d d d f f f f 6 6 6 6 ",
"p p p p % % % % d d d d y y y y f f f f d d d d s s s s f f f f f f f f s s s s 1 1 1 1 2 2 2 2 s s s s d d d d f f f f 6 6 6 6 ",
"p p p p % % % % d d d d y y y y f f f f d d d d s s s s f f f f f f f f s s s s 1 1 1 1 2 2 2 2 s s s s d d d d f f f f 6 6 6 6 ",
"p p p p % % % % d d d d y y y y f f f f d d d d s s s s f f f f f f f f s s s s 1 1 1 1 2 2 2 2 s s s s d d d d f f f f 6 6 6 6 ",
"a a a a f f f f w w w w s s s s f f f f d d d d i i i i f f f f f f f f s s s s , , , , f f f f s s s s . . . . X X X X a a a a ",
"a a a a f f f f w w w w s s s s f f f f d d d d i i i i f f f f f f f f s s s s , , , , f f f f s s s s . . . . X X X X a a a a ",
"a a a a f f f f w w w w s s s s f f f f d d d d i i i i f f f f f f f f s s s s , , , , f f f f s s s s . . . . X X X X a a a a ",
"a a a a f f f f w w w w s s s s f f f f d d d d i i i i f f f f f f f f s s s s , , , , f f f f s s s s . . . . X X X X a a a a ",
"a a a a u u u u . . . . s s s s         $ $ $ $ s s s s s s s s s s s s 3 3 3 3 d d d d f f f f @ @ @ @ o o o o f f f f a a a a ",
"a a a a u u u u . . . . s s s s         $ $ $ $ s s s s s s s s s s s s 3 3 3 3 d d d d f f f f @ @ @ @ o o o o f f f f a a a a ",
"a a a a u u u u . . . . s s s s         $ $ $ $ s s s s s s s s s s s s 3 3 3 3 d d d d f f f f @ @ @ @ o o o o f f f f a a a a ",
"a a a a u u u u . . . . s s s s         $ $ $ $ s s s s s s s s s s s s 3 3 3 3 d d d d f f f f @ @ @ @ o o o o f f f f a a a a ",
"5 5 5 5 # # # # d d d d u u u u f f f f d d d d d d d d d d d d d d d d d d d d d d d d i i i i @ @ @ @ d d d d f f f f ; ; ; ; ",
"5 5 5 5 # # # # d d d d u u u u f f f f d d d d d d d d d d d d d d d d d d d d d d d d i i i i @ @ @ @ d d d d f f f f ; ; ; ; ",
"5 5 5 5 # # # # d d d d u u u u f f f f d d d d d d d d d d d d d d d d d d d d d d d d i i i i @ @ @ @ d d d d f f f f ; ; ; ; ",
"5 5 5 5 # # # # d d d d u u u u f f f f d d d d d d d d d d d d d d d d d d d d d d d d i i i i @ @ @ @ d d d d f f f f ; ; ; ; ",
"p p p p         d d d d s s s s         = = = = f f f f         f f f f f f f f f f f f i i i i s s s s O O O O f f f f t t t t ",
"p p p p         d d d d s s s s         = = = = f f f f         f f f f f f f f f f f f i i i i s s s s O O O O f f f f t t t t ",
"p p p p         d d d d s s s s         = = = = f f f f         f f f f f f f f f f f f i i i i s s s s O O O O f f f f t t t t ",
"p p p p         d d d d s s s s         = = = = f f f f         f f f f f f f f f f f f i i i i s s s s O O O O f f f f t t t t ",
"p p p p f f f f d d d d * * * * @ @ @ @ u u u u s s s s s s s s s s s s s s s s * * * * s s s s i i i i d d d d % % % % p p p p ",
"p p p p f f f f d d d d * * * * @ @ @ @ u u u u s s s s s s s s s s s s s s s s * * * * s s s s i i i i d d d d % % % % p p p p ",
"p p p p f f f f d d d d * * * * @ @ @ @ u u u u s s s s s s s s s s s s s s s s * * * * s s s s i i i i d d d d % % % % p p p p ",
"p p p p f f f f d d d d * * * * @ @ @ @ u u u u s s s s s s s s s s s s s s s s * * * * s s s s i i i i d d d d % % % % p p p p ",
"p p p p f f f f $ $ $ $ d d d d O O O O d d d d d d d d d d d d $ $ $ $ 1 1 1 1 d d d d + + + + < < < < O O O O 4 4 4 4 p p p p ",
"p p p p f f f f $ $ $ $ d d d d O O O O d d d d d d d d d d d d $ $ $ $ 1 1 1 1 d d d d + + + + < < < < O O O O 4 4 4 4 p p p p ",
"p p p p f f f f $ $ $ $ d d d d O O O O d d d d d d d d d d d d $ $ $ $ 1 1 1 1 d d d d + + + + < < < < O O O O 4 4 4 4 p p p p ",
"p p p p f f f f $ $ $ $ d d d d O O O O d d d d d d d d d d d d $ $ $ $ 1 1 1 1 d d d d + + + + < < < < O O O O 4 4 4 4 p p p p ",
": : : : f f f f f f f f f f f f f f f f u u u u 2 2 2 2 > > > > f f f f f f f f r r r r f f f f f f f f f f f f f f f f a a a a ",
": : : : f f f f f f f f f f f f f f f f u u u u 2 2 2 2 > > > > f f f f f f f f r r r r f f f f f f f f f f f f f f f f a a a a ",
": : : : f f f f f f f f f f f f f f f f u u u u 2 2 2 2 > > > > f f f f f f f f r r r r f f f f f f f f f f f f f f f f a a a a ",
": : : : f f f f f f f f f f f f f f f f u u u u 2 2 2 2 > > > > f f f f f f f f r r r r f f f f f f f f f f f f f f f f a a a a ",
"a a a a 0 0 0 0 p p p p - - - - a a a a ; ; ; ; p p p p & & & & a a a a a a a a a a a a a a a a p p p p p p p p p p p p a a a a ",
"a a a a 0 0 0 0 p p p p - - - - a a a a ; ; ; ; p p p p & & & & a a a a a a a a a a a a a a a a p p p p p p p p p p p p a a a a ",
"a a a a 0 0 0 0 p p p p - - - - a a a a ; ; ; ; p p p p & & & & a a a a a a a a a a a a a a a a p p p p p p p p p p p p a a a a ",
"a a a a 0 0 0 0 p p p p - - - - a a a a ; ; ; ; p p p p & & & & a a a a a a a a a a a a a a a a p p p p p p p p p p p p a a a a "
};
