/* XPM */
static char *_53613a9e9944628bcd95f8dc0c05b2f8OVyPYA9xUtSCwSx[] = {
/* columns rows colors chars-per-pixel */
"64 64 164 2 ",
"   c #8A7D5B",
".  c #90835F",
"X  c #9A875E",
"o  c #9B885F",
"O  c #918460",
"+  c #9E8B61",
"@  c #A08D63",
"#  c #A39266",
"$  c #AA9567",
"%  c #A59569",
"&  c #AB9769",
"*  c #A79B6D",
"=  c #AC9B6B",
"-  c #B29E6D",
";  c #AFA06F",
":  c #B2A26F",
">  c #B4A472",
",  c #B8A773",
"<  c #B6A975",
"1  c #BAAA74",
"2  c #BCA679",
"3  c #B7A878",
"4  c #BDAE78",
"5  c #BFB077",
"6  c #BFB17B",
"7  c #C0AF76",
"8  c #C4AE7A",
"9  c #C1B076",
"0  c #C6B67B",
"q  c #C8B77B",
"w  c #C7B87C",
"e  c #CDB97F",
"r  c #CFB97F",
"t  c #CEBA7F",
"y  c #CAB97D",
"u  c #C4B780",
"i  c #C6B881",
"p  c #CEBA80",
"a  c #CFBA81",
"s  c #CBBD83",
"d  c #D0BA81",
"f  c #D0BB81",
"g  c #D1BB82",
"h  c #D1BC82",
"j  c #D3BF82",
"k  c #D3BE83",
"l  c #D4BF83",
"z  c #D5BF83",
"x  c #D4BF84",
"c  c #D5BF84",
"v  c #D2BE82",
"b  c #CCC085",
"n  c #CDC186",
"m  c #CDC286",
"M  c #CEC286",
"N  c #CFC287",
"B  c #CEC387",
"V  c #CFC387",
"C  c #CEC487",
"Z  c #CEC084",
"A  c #CEC388",
"S  c #CFC388",
"D  c #CFC28A",
"F  c #CEC488",
"G  c #CFC488",
"H  c #CFC489",
"J  c #CFC589",
"K  c #CFC48A",
"L  c #CFC489",
"P  c #D4C083",
"I  c #D5C083",
"U  c #D0C387",
"Y  c #D4C084",
"T  c #D5C084",
"R  c #D5C184",
"E  c #D5C085",
"W  c #D6C084",
"Q  c #D7C084",
"!  c #D6C184",
"~  c #D6C085",
"^  c #D7C085",
"/  c #D6C185",
"(  c #D7C185",
")  c #D6C285",
"_  c #D7C285",
"`  c #D6C186",
"'  c #D7C186",
"]  c #D6C286",
"[  c #D7C286",
"{  c #D7C287",
"}  c #D7C387",
"|  c #D6C185",
" . c #D8C185",
".. c #D8C285",
"X. c #D8C186",
"o. c #D8C286",
"O. c #D9C286",
"+. c #D9C386",
"@. c #D8C387",
"#. c #D9C487",
"$. c #D9C286",
"%. c #D0C388",
"&. c #D0C488",
"*. c #D0C489",
"=. c #D0C589",
"-. c #D1C589",
";. c #D4C78A",
":. c #D5C78B",
">. c #D3C78C",
",. c #D4C689",
"<. c #DBC588",
"1. c #D4C88A",
"2. c #D5C88A",
"3. c #D4C88B",
"4. c #D4C98B",
"5. c #D5C98B",
"6. c #D6C98B",
"7. c #D7C98B",
"8. c #D6CA8B",
"9. c #D4C98C",
"0. c #D5C98C",
"q. c #D5C98D",
"w. c #D6C98C",
"e. c #D6C98D",
"r. c #D5CA8C",
"t. c #D6CA8C",
"y. c #D7CA8C",
"u. c #D6CA8D",
"i. c #D7CA8D",
"p. c #D6CB8D",
"a. c #D7CB8D",
"s. c #D5CA8E",
"d. c #D5CA8F",
"f. c #D5CB8F",
"g. c #D6CB8E",
"h. c #D7CB8E",
"j. c #D6CA8F",
"k. c #D6CB8F",
"l. c #D7CC8D",
"z. c #D6CC8E",
"x. c #D7CC8E",
"c. c #D7CD8E",
"v. c #D7CC8F",
"b. c #D7CD8F",
"n. c #D6CB8D",
"m. c #D8CA8D",
"M. c #D8CC8D",
"N. c #D8CC8E",
"B. c #D9CC8E",
"V. c #D8CD8E",
"C. c #D8CD8F",
"Z. c #D9CD8F",
"A. c #D8CE8F",
"S. c #D9CE8F",
"D. c #DACE8F",
"F. c #D8CD8F",
"G. c #D6CB90",
"H. c #D6CC90",
"J. c #D7CC90",
"K. c #D6CC91",
"L. c #D9CE90",
"P. c #D9CF90",
"I. c #DACF90",
"U. c #DBD191",
/* pixels */
"K V K V 5 5 5 9 9 9 9 9 5 5 5 9 9 5 5 9 C &.C C C C C V a t t a 5 5 5 9 C C C C C C C C K C C C C C K C V C C D C C V V : : : ; ",
"v.S.S.p.y q q q q q q q q y w q q w q q M.M.S.S.v.S.v.S._ _ .._ q w q q l.S.S.S.A.v.A.A.A.c.v.S.S.S.S.S.S.S.S.S.S.v.S.p.1 1 1 : ",
"p.p.v.8.q 0 0 0 w w 0 w 0 w w w w w w w l.l.v.v.v.v.v.8._ ~ _ ~ q w w w l.v.v.v.v.v.v.v.v.v.v.l.p.p.p.v.v.v.v.v.v.8.v.8.1 1 1 : ",
"p.S.p.p.y q y y q q w q 0 0 0 0 w w w y l.l.l.8.8.p.p.8.~ Q Q Q y w w w 4.v.8.8.p.8.8.v.v.l.l.l.p.p.p.8.l.l.l.v.v.v.S.8.1 1 1 : ",
"G.p.p.L.p.p.N.p.~ Q ~ l 1 1 < 1 P ~ _ Q _ _ ! ! q q q y w q q q 0 w 0 w w q q q q q w y o.! o.! y 0 w y Q ~ ~ ..l.l.l.8.1 , 1 : ",
"G.N.N.p.p.N.p.N._ ~ o.~ 1 < < 1 ~ _ ~ _ _ _ ! Q q w w w w w q w q 0 w 0 0 w w w w q w q z o.! ! q q w q _ ~ ~ o.c.l.l.8.5 , 1 : ",
"p.N.p.N.N.p.p.p...o.o.~ 3 < < 1 ~ _ _ ~ ~ ..Q ! q w w q w q w q w 0 w w w w w w q q 0 q ! o.o.z q 0 0 q Q _ ~ ~ c.c.M.8.1 , 5 : ",
"G.p.G.N.p.L.L.p.Q Q ~ k 1 1 1 1 P Q Q P Q Q Q Q q q q q q q q q 0 0 0 0 q y y q y q q e ! ! ! ! y y w y _ _ _ :.l.v.M.8.1 , 1 : ",
"p.S.v.S.c.l.l.l.w w q 0 q q q 0 q q q q q q 0 q ~ ~ o.~ _ ~ ~ P 1 2 < 1 8.v.p.8.v.8.S.8.!  .! o.p.N.p.p.v.l.v.M.v.l.v.8.1 1 1 : ",
"9.l.p.S.v.l.l.8.w 0 0 w 0 q 0 0 0 w 0 w 0 0 0 0 Q o.~ ~ ~ _ ~ Q 1 < < 1 9.v.v.v.v.v.p.p. . . .! N.p.N.S.l.v.l.S.l.v.v.8.1 1 1 : ",
"p.L.A.A.A.A.P.M.y q q w q 0 y q w q q q q q q q _ ..o.o.......~ 1 < , 1 p.J.S.S.S.S.S.S.<.<.+.+.S.S.S.S.S.S.A.A.A.A.A.l.1 1 1 : ",
"D %.C &.&.&.R P 9 0 9 0 0 0 9 0 0 9 0 9 0 9 0 0 a v g g v v v t < < > < V ;.D K U U D %.r r r r U V &.&.&.C &.C &.&.4.C 1 : , : ",
"+ + @ + @ o @ + @ o @ o # $ % % % # % % % # % % % % % % % % # % % % # % # % % # + @ + + o @ + + + + @ + @ o @ @ # % # # % # & @ ",
"+ + + + + + o @ + @ o @ # # % % % % % % % % # % % % # % % # % % % % % % % % % % + + + @ + + + + + + o + @ o o @ % % % % % % $ @ ",
"+ o + + o o + o o + o o # # # # # # % % # # % # # % # # # # % % @ # # # # # # % o o + o o o + + o o + o o o o o # # # % # # # + ",
"% % % % # @ $ # # # # # * & = & & * * = = = = = = = = * * $ $ & = = ; = = * = % # # # # @ # @ # % % % $ % $ # $ = = * * ; * ; % ",
"G.N.N.p.y 0 0 0 0 0 y q q w 0 q w w 0 q v.l.l.l.l.v.M.8.1 1 1 1 8.v.S.8.q w q q q 0 q q 1 < < 1 l O.o.o._ _ _ ..~ .._ _ v.v.v.C ",
"p.N.p.p.y 0 0 q q 0 0 0 w 0 0 0 q 0 w y v.v.l.v.v.l.S.8.1 1 1 1 8.S.v.8.q q 0 w q 0 q q 3 < 1 1 l c o.c ~ _ _ ~ ..~ ~ _ v.v.A.C ",
"G.S.v.p.y w q 0 y 0 q 0 0 0 0 y 0 0 0 y 8.S.v.l.l.v.v.>.1 1 1 1 8.v.l.l.w w q 0 0 0 q 0 2 , , < o.o.o.z ~ ~ Q Q ~ _ ~ _ v.v.A.K ",
">.:.8.;.w q 0 w 0 9 0 0 q y y y y y y y 8.N.8.8.v.v.v.p.1 1 1 1 :.p.M.l.y q q e y q y q 4 4 4 4 l z l ! P P P Q ~ ~ Q P 1.4.8.V ",
"0 w w w 0 w 0 0 1 < , 1 c O.o.O.! o.o.o.~ o.Q ~ l.l.S.p.1 , , 7 Q ~ ~ ~ o.! o.! o.o.Q ~ _ _ :.~ q q w w 0 w w 0 w 0 w w 0 0 q 5 ",
"0 q 0 w 0 q w q 2 < < 1 c o.c c o.o.~ ~ o.~ ~ o.v.M.M.8.1 1 , 1 P ~ ~ o.~ ~ ! o.o.Q Q o._ _ ~ Q q 0 w w q 0 w w 0 w 0 w w 0 q 9 ",
"0 0 w w w w 0 0 1 < < 2 c O.O.o.! o.~ o.! o.! o.M.M.M.8.1 1 1 1 Q ~ o.! ~ o.~ ~ ~ ~ ...._ ~ Q Q q 0 0 w 0 w w w 0 0 w w w w q 9 ",
"s y y y y y t q 6 4 4 9 c o.c c ~ o._ o.o.:._ ..M.M.M.8.1 1 1 1 v P Q Q P P Q Q v v v v _ _ _ ~ e y y y y y y y y y y y y y y 0 ",
"p.S.p.p.J.v.v.v.S.v.S.v.c <.c <.S.v.v.v.p.p.N.p.S.p.S.q.1 , 1 1 0 w w w 0 w 0 0 < , , < p.J.v.v.v.v.v.J.l.v.v.v.S.v.v.v.S.v.S.K ",
"p.p.G.p.G.G.p.p.p.p.p.p.c c c c p.p.p.8.p.p.p.p.p.p.p.q.1 < , 1 0 w w q w 0 0 0 < 2 , 1 p.v.p.v.p.p.p.p.8.l.l.v.v.v.v.v.8.8.v.V ",
"J.U.L.L.I.I.I.I.L.L.L.L.c <.#.#.L.L.S.U.L.L.L.S.L.L.L.L.1 1 1 1 w q q q q q q q 3 2 1 1 v.L.S.J.S.U.U.L.A.U.U.J.A.S.A.A.U.J.A.4.",
"s s s V D s s s s s s s p q y y s s s s s s s s s s s s , > , , 7 7 9 9 9 9 9 9 > > : > s s s s s s s i s s s s Z b Z s s b b w ",
"% # # # # # # # + X + o o o + o X + + X + X o X X + o o % % % # % # % # # % % # o o @ o o X o o X o o o o + o o # # # # # # # + ",
"% % % * % % % * + + + + + + + + + + + + + + + @ + + + + % % % % % % % % $ % % % + @ @ + @ @ + @ + + + + + + + + # % % % % % * + ",
"% + # + # + % + o o o X o o X o X X X o + o + + + X o o @ # @ + # # @ # # # # # o o o o X o o o o o o o X X o + # # # # # % % + ",
"> > > > > ; > ; = = = = = = = = = = = = % # @ % % $ % = : > > > > ; : > - : : = - & & = = & & = = * = = = = = = = > > ; * = = # ",
"L.S.S.S.A.A.A.A.A.A.A.A.A.A.A.A.L.L.U.p.4 3 1 1 q q y y A.A.A.c.J.S.S.S.......#.....<...<.<._ <.A.A.A.A.A.A.A.A.A.A.A.v.1 1 1 1 ",
"p.8.l.l.l.l.l.l.M.l.l.l.M.l.M.l.v.p.p.4.1 < < 2 q w w q l.v.v.v.p.p.v.8.~ ~ ~ o.Q Q ~ ~ Q Q _ _ v.v.S.S.8.l.M.l.M.M.v.v.1 1 1 2 ",
"J.L.S.v.c.A.l.c.S.S.v.v.S.S.S.S.S.v.v.p.2 > < > 0 w w w l.S.v.v.v.v.v.S.o.o.o.o.....! +.....<._ 8.l.v.l.S.v.S.S.S.S.S.<.1 1 1 1 ",
";.;.1.&.1.1.1.R ,.&.1.4._ &.,.&.&.;.;.K 0 6 0 9 y y q t 8.<.<.8.;.;.;.&.P v v v Q t Q t a a a a p.v.l.v.1.,.&.&.&.8.&.&.1 , 1 2 ",
"0 0 0 0 0 0 0 0 w 0 0 0 0 0 0 0 0 w 0 w S.S.S.S...o...o.Q Q ! Q q 0 0 0 0 0 0 0 0 0 w 0 , , < < 8.S.p.p.q 0 0 0 0 0 0 0 1 1 1 1 ",
"u q 0 0 0 q 0 q q w 0 0 w 0 0 0 q q w w 8.v.p.p...! o.! +.! ! Q q 0 0 w 0 w w 0 0 w w 0 < 2 < 1 8.N.N.p.q 0 0 w 0 0 0 0 1 1 1 1 ",
"w w 0 0 q q 0 q q q 0 0 0 0 0 q 0 0 0 0 N.v.S.p.o.o.o.o.+.! ....q w 0 q q 0 0 w 0 0 0 0 < < > 2 8.N.v.N.0 0 w w 0 0 0 0 1 , 1 7 ",
"a y b a t y y r y y y y e e e e s s s t 8.v.p.M.Q t v l j j j t q 0 w 0 w w q 0 e y y y 8 8 8 0 :.8.:.8.e y e e r y r r 1 , , 2 ",
"P.J.v.v._ ~ _ ~ o.o.o.o.o.! c #.M.M.v.c.v.v.l.l.q 0 0 0 0 0 0 0 w 0 w 0 y 0 0 y P +.+.+.#.o.O.O.o.o.z o.o.Q o.o.Q Q O.o.1 , 1 : ",
"f.v.v.f.Q Q Q Q c c ~ ~ Q Q c c l.l.f.J.v.v.v.4.y 0 0 w 0 0 0 0 0 0 w 0 0 w 0 w P ! Q I c c c c z z ! z Q Q Q ~ I Q ! z 7 , 1 : ",
"J.U.P.U.#.o.<.<.#.#.......o.<.<.A.U.U.U.P.P.U.c.y y y y y y y y y q y y y y y y o.o.+.+.#.<.#.#.<.<.o.<...<.<.<.<.<.<.O.7 1 7 : ",
"i i i w 8 8 0 9 8 0 q 0 0 0 8 q w w 0 6 u 0 u 0 1 , < 1 5 1 1 1 1 5 1 1 1 1 1 1 0 0 0 0 0 8 0 0 8 8 8 8 8 0 8 8 8 8 9 8 : : : = ",
"# # @ # o o o o # # @ # # # # # o X X X O o o X o o o o # # # # # # # # # # # # @ @ # @ # @ # + o o X o X X X X X + X + % # % + ",
"% % % % @ @ @ @ % % % % % % % % + @ + + @ @ @ @ @ + + @ # % $ $ % % $ # % % % * % % % % % * % % @ @ @ + + + @ @ + + + + $ % % @ ",
"# # @ # X X X X # # @ # # @ @ @ o X X X X X o o o o o o # # @ # # # # # # # # # % # # # # # # # o o X X X X X X X X X o @ @ # + ",
"3 3 < , > : > : < < < < < < < < > > , : = - = = : : : : = ; : = : : : : ; * = = - : : - ; : ; : - - - - > > ; > > > > > < < < > ",
"J.U.P.P.U.U.U.U.A.U.A.A.U.A.A.U.A.U.U.A.t y y y P.U.U.U.7 1 1 1 y q y y 1 1 < 1 y y y y y y y y <.<.<.<.U.U.U.U.U.U.U.U.U.c.U.4.",
"G.v.9.v.l.l.l.l.l.l.l.v.v.l.l.l.v.8.v.l.w w 0 0 8.l.l.l.1 , 1 1 0 q 0 0 < < 1 1 q q q 0 0 0 q 0 z ! c o.8.l.l.l.l.l.l.l.l.l.c.C ",
"p.S.v.v.M.A.A.M.A.c.A.v.l.v.v.v.v.l.v.l.0 0 0 0 l.v.l.l.1 1 1 1 0 0 y 0 < < > < 0 0 q 0 y 0 0 y ! o.O.O.A.A.P.P.l.A.A.A.v.8.c.J ",
":.:.8.8.U U U Z b s b b l.l.v.l.l.v.l.l.Z s s j l.l.v.4.1 1 1 1 a a s s 0 8 0 0 y y t y q 0 0 y v l t l C R Z Z C R C C 8.8.8.V ",
"c c o.l q 0 0 0 , , , < 8.v.v.v.v.l.v.l.S.S.S.S.l.v.v.8.1 1 1 1 v.c.v.A.+.+.+.+.+.......y q 0 0 0 0 0 0 0 0 0 0 0 0 0 q l ! ! r ",
"~ o.o.~ q q w w < < < 1 4.v.l.v.v.v.l.v.p.v.p.l.v.l.v.4.1 1 1 1 f.v.v.l.! +.+.! ......P q q q 0 0 q q w q q w y q q 0 q ~ o.o.r ",
"~ z c ~ 0 0 0 0 < < , < M.A.v.A.S.v.S.S.p.S.l.v.l.v.l.4.1 1 1 1 8.l.l.l.P P ..P ........q 0 0 q 0 0 0 0 0 0 0 0 0 0 0 0 Q ! O.r ",
"q.:.#.#.v Z a Z 7 4 5 5 P U U &.P U U &.p.p.v.v.v.l.v.l.1 1 1 1 8.S.v.l.8.#.#.#.j t j t t t r t Z P s s s Z s j s Z Z V _ :.#.v ",
"f.v.v.v.c.v.A.v.y q q q 0 0 0 0 q 0 0 0 8.S.v.v.S.p.N.q.1 1 1 1 8.v.v.l.v.v.v.4.w 0 0 q ! +.O.O.v.P.v.v.c.c.c.v.M.A.v.c.v.v.c.C ",
"9.v.v.9.l.l.v.l.0 0 0 0 q 0 0 0 q q 0 w 8.8.p.p.p.p.p.q.1 , 1 1 4.v.v.v.l.l.v.4.q 0 0 q Q ! ! ! v.4.v.f.v.v.v.v.l.M.v.v.v.l.v.C ",
"P.U.U.U.A.U.U.A.e q q y y y y y y y y y A.U.U.U.L.U.U.L.7 1 1 7 A.U.U.U.U.U.A.A.y y y y <.<.<.<.A.U.U.U.U.A.U.U.A.U.U.U.U.U.U.4.",
"6 6 6 6 6 0 6 6 1 , , , 7 , , 1 , : : : 4 4 4 6 0 0 q 9 - = = = 6 6 6 6 6 6 6 0 , < < < 1 1 1 1 < < < < 6 5 4 4 5 5 5 4 6 6 0 < ",
"# + # # # @ # @ # # # @ $ $ $ & o X o + X X X o % $ $ $ o o o o # @ @ # @ @ @ @ # @ # # o X X X         X X X X X o X X @ @ % + ",
"* % % % $ % % % $ # $ $ $ & - & # + + + o @ @ @ & & - & @ @ @ + % * % % % * % * % % % % + + + + O O . . + + + + + + + + % % % @ ",
"# % # # # # # # # # $ $ $ $ $ - o o + o o o + o $ $ $ $ o o o o # # # % # # # # # # # % o + o o   .     + o o o o o o o # # % @ ",
"3 > 3 > : = ; ; ; ; $ $ 7 - - - & = $ = - - - - , 1 2 2 - - - - ; = = ; > < > < > < > > ; ; > ; * * * * ; > = ; > : > ; = * * % "
};
