/* XPM */
static char *d6162326be61447b9c3dcceb895f9a53EQ3O2leMWH8HonXZ[] = {
/* columns rows colors chars-per-pixel */
"64 64 169 2 ",
"   c #644D28",
".  c #67573C",
"X  c #6F573A",
"o  c #6B5A3E",
"O  c #755B3C",
"+  c #785E3B",
"@  c #77613F",
"#  c #7C623D",
"$  c #6E5D43",
"%  c #715F46",
"&  c #745F48",
"*  c #6E614E",
"=  c #746245",
"-  c #7F6445",
";  c #776E46",
":  c #7D6A46",
">  c #75644B",
",  c #7B664C",
"<  c #76684E",
"1  c #7C6A4D",
"2  c #797046",
"3  c #7D724A",
"4  c #746450",
"5  c #7C6651",
"6  c #766851",
"7  c #7D6B53",
"8  c #7E6F5B",
"9  c #7F7157",
"0  c #7E7159",
"q  c #7F7A5F",
"w  c #7B7368",
"e  c #826136",
"r  c #85643C",
"t  c #816D3F",
"y  c #816743",
"u  c #856B44",
"i  c #8A6D43",
"p  c #81674C",
"a  c #836C4D",
"s  c #896F4D",
"d  c #857144",
"f  c #86724D",
"g  c #8C744C",
"h  c #8D784D",
"j  c #91754D",
"k  c #93794E",
"l  c #836D53",
"z  c #896F53",
"x  c #846E59",
"c  c #896F58",
"v  c #857255",
"b  c #8B7455",
"n  c #857B53",
"m  c #8D7A56",
"M  c #85735A",
"N  c #8B755B",
"B  c #84795D",
"V  c #8D7A5C",
"C  c #907654",
"Z  c #937A54",
"A  c #9B7C54",
"S  c #91765A",
"D  c #927C5D",
"F  c #997E5D",
"G  c #857561",
"H  c #8B7661",
"J  c #867A61",
"K  c #8E7B62",
"L  c #8C7E6A",
"P  c #937D62",
"I  c #997F63",
"U  c #947E68",
"Y  c #987F69",
"T  c #8E825E",
"R  c #978054",
"E  c #95815D",
"W  c #9A825E",
"Q  c #A2845E",
"!  c #A0895D",
"~  c #878065",
"^  c #8D8162",
"/  c #8E826A",
"(  c #8E886A",
")  c #958164",
"_  c #9A8364",
"`  c #968963",
"'  c #9C8966",
"]  c #95836A",
"[  c #9B856A",
"{  c #958A6D",
"}  c #9D8A6C",
"|  c #9E906E",
" . c #978772",
".. c #9C8671",
"X. c #978F74",
"o. c #9D8B72",
"O. c #9F8E7A",
"+. c #9C9373",
"@. c #A48560",
"#. c #A08367",
"$. c #A08566",
"%. c #A18666",
"&. c #A28766",
"*. c #A28966",
"=. c #A1876A",
"-. c #A18868",
";. c #A38968",
":. c #A5896A",
">. c #A48B6B",
",. c #A28B6C",
"<. c #A2886E",
"1. c #A58A6C",
"2. c #A18D6D",
"3. c #AB8C68",
"4. c #AB8F6F",
"5. c #A2906D",
"6. c #A48B73",
"7. c #A38D70",
"8. c #A38D73",
"9. c #A58C73",
"0. c #A78D73",
"q. c #A38B75",
"w. c #A88E74",
"e. c #A28E78",
"r. c #AA8F78",
"t. c #A49070",
"y. c #A59172",
"u. c #A69273",
"i. c #A59174",
"p. c #A99076",
"a. c #AA9177",
"s. c #A99475",
"d. c #AA9877",
"f. c #A5937A",
"g. c #AA957A",
"h. c #AE957A",
"j. c #A7987B",
"k. c #AC997C",
"l. c #B09270",
"z. c #B09575",
"x. c #B1977A",
"c. c #B0977D",
"v. c #B79978",
"b. c #B59B7E",
"n. c #B29D7F",
"m. c #B79C7C",
"M. c #8F8887",
"N. c #978F86",
"B. c #928B89",
"V. c #96908B",
"C. c #9D9388",
"Z. c #9B958D",
"A. c #9C9690",
"S. c #9C9790",
"D. c #9F9A92",
"F. c #A39785",
"G. c #A29686",
"H. c #A49986",
"J. c #AC9B81",
"K. c #A19688",
"L. c #A59B8D",
"P. c #B29E81",
"I. c #A49D93",
"U. c #A99E92",
"Y. c #B5A082",
"T. c #A7A195",
"R. c #AAA296",
"E. c #AFA598",
"W. c #B2A799",
/* pixels */
"A.w * 7 M U  ...e.N...U N m V V T V T ) ] E D V ) ` [ _ ) E T T ` :.:.%._ Q :.:.;.%.I F S S S S m b z c z S U P V l x V K ) B B ",
"N.4   % a S _ <.6.6.[ S i u u d u u d h h h i g j Z A Z j g f h A Q Q A A A A A Q A A j j i i r e e e r r i s s - # r s b b b i ",
"C.8 @ s F %.4.z.x.c.r.#.S S m b a a v V E P S C F F I F D D D F _ :.:.W F F *.%.*.*._ _ S S b i p - y p a s z b a p z S I P V b ",
"K.J a C Q 3.l.v.m.b.x.0.#.I D S b v v D ) I I I I #.#._ I I _ ` <.i.2.' ) I ` _ } i.>.,.[ I S v a a 1 a l x x z x z V U Y Y P N ",
"G.U b C A Q 3.l.z.h.h.a.6.<._ P B v m V ) _ _ _ #.#._ I _ [ } | 2.2.} _ ) ) E _ ,.5.i.i.9.[ I V v v x z b x l l M V U { [ [ U J ",
"G.] C C Z A Q *.1.w.a.g.g.e.[ U T V B ^ ) ` [ ' [ _ ` ) ] } | 5.5.2.' _ W E F ) *.5.a.s.a.1.[ I V V N N N x 7 l M ) } } o.{ ) P ",
"H.{ D j j j A F ;.8.i.g.g.i.} ] ^ ^ ^ ^ ) ] ' } ` _ P ) ) } } 5.2.*._ _ F D V Z _ ' 4.s.h.a.1.#._ I P K S z 7 7 J ] } } o.{ / K ",
"H.{ Z C j j Z _ [ o.8.e.6.} ` ] ] ] ) ) E ] [ [ I D D D ) ` } } ' W W W F S m m S _ } :.s.s.0.0.<.[ U I D N l p N P ] [ { ) V V ",
"H.{ m h C Z Z E { 8.8.<.[ [ I [ [ [ ) I P I _ %.F S S S D _ [ _ _ W F F D C z z z C I =.9.w.0.4.9.1.Y Y P C x a b P P I I P S N ",
"U.{ Z T E F F ) { o.[ [ Y I I Y ] _ ) P P I =.[ I S b S F I _ _ _ F F I D C s s s b S I 1.Y 1.Y %.Y Y P S N z v N P U U K K S N ",
"L.{ E ) _ _ Y ) [ [ [ I F F _ I I I D S V I [ <.I b b C S F W _ _ _ ) P D C b a s z C D Y Y U H S c c G z M b V D [ U P K P I U ",
"L.} E } [ [ [ _ [ [ [ I D F @._ _ ) D N N I =.<.I N C C D D F _ Y _ ) D D b b z s z N S S c c x l l 7 x c V D E ` [ [ K H K ) ] ",
"I.} ` } } [ [ Y Y [ _ _ I _ @.[ _ _ I N N P _ ` I V N S S Z D S S V V D V S C C b C S S S c x l 5 5 5 x N ) { 2.,.9...P M H [ [ ",
"T.+.` } ..[ U P I [ _ _ #._ _ =.<.2.[ P N V P ) D D F Z S m C b z l v b Z S D Z S D D D K H c l l 5 x x K } 2.d.d.e.o.K M H ] <.",
"R.+.` | ..[ U P P I _ [ [ _ _ [ ;.<.` P N b N V V I ) ) I D m b a l l m D F F W I F F I I S N c c c G H ] } i.d.g.f. .P M H U [ ",
"R.+.` } ..] K K K K _ _ _ _ I I _ [ I V l l l x V _ [ [ [ _ I S b l b S ) _ _ _ %._ _ _ Y Y U K H H Y Y 8.5.5.5.f.5.o.P M H ] [ ",
"R.+.` | X.] V V N K ) _ _ I V N P ) P N 7 , = a N [ } 8.5.q.[ I V N N _ ' ' *.' ' %.%.[ [ ..Y Y Y Y [ q.i.8.} } } 8.] H x H U U ",
"T.+.` ` { ] K B N V J ) _ P V v K ) K N l < = , V ] ..i.i.o.[ _ ) V I _ ' *.' ' _ _ %.=.<.<.<.[ [ Y [ ..8.} ] ) ] [ U H 7 x H K ",
"T.X.T (  .] K M M N V ) [ P b v V P K V v 1 = , N ) { 8.9...[ ] _ ] ` [ ' ' ' W W _ _ =.<.<.[ [ [ ) [ [ } ` ) K ) ) J 7 4 5 x M ",
"D.( T T ] ] K V M M V ) ] P N v N K K V B 9 , 7 N [ } o.} } [ [ [ [ } } *.' W E W W _ [ q.<.<.[ ) P ) ) ] ) V V V K N 7 & > 7 N ",
"D.~ n / ] ] K J V M N V K V v v N V E T ^ V v v K o...o.q... .[ [ [ [ } *.' _ _ E ) _ *.q.} [ [ ) U D ) ) ) K K K U K l 5 7 l J ",
"Z.B 3 B / / / U B 9 9 B V N v M B V / ] ] ] K ^ { o.i.o.....[ Y ] [ [ [ } ' _ E _ W _ ,.2.<.1.[ ) P ) ) ) ) P ) U Y P M x x N U ",
"Z.T 2 B K U ) U V N v N N N M V V K / ] { ] ] ] o.o.f.9..... . .{ ] [ { } _ _ ) ) W ` =.<.<.[ I P V P D ) ) T K ] ] ] J M N K U ",
"V.q ; B K ] ] ] V V V B K U ) ) ) ) ) ] } { ] ` o.i.f.o.6...Y  .U ] [ [ [ ` E E E D _ _ _ I I P V V N N V m N V K I ) K N N V V ",
"Z.q 2 q J ] [ [ I N V P ] [ [ [ { ] ] ] ) ] ] ` o.f.f.8.O.Y  .Y [ ] { [ } [ ) E D D D E ) I I V N b v b b v v v J P ) V V V V V ",
"Z.w 2 n V U [ [ I P P ) ] [ } ] ] ] ) ) ] ) ] { i.f.f.e.q.Y ........o.9.8.8._ ) D D D ) I I U K N v v v f v v N V P ) K V V V v ",
"A.~ 3 n K U [ [ _ F ) ) ] [ ] ) ) ) B V V V ) { e.J.J.f.e.O.q.q.e.f.f.k.k.i.i.} I D D ) ) _ U I V N v v v v V T E ) E D V m v v ",
"A./ n V P U [ [ _ I _ [ ] ) P K B ) B V m B V { f.J.J.f.q.q.e.N.e.f.G.k.k.d.i.} ` E D ) [ [ [ [ U D m v v m E ) ) E T V V n b v ",
"I.{ T B V P _ =._ #.%.[ [ ) V N V ) V V V T ] } f.J.J.8. .Y Y Y  .]  .f.g.g.i.} ) E E _ [ 6.2.8.[ _ P V V V E ) E E E m Z m n m ",
"T.X.E B K P I _ %.%.%.[ [ K N v V ) ) V V ^ ] 2.k.P.k...U H H H G M L ] ..2.} } ] E P ] [ e.a.a.e.} [ ) ) E ) E T m m m Z T Z D ",
"T.+.^ T K S Y I _ #.%._ ) P N N V ) P V V ) { } f.k.8.] x x x x x 7 M U { [ } ' ) D I ] <.6.e.e.s.e.<.[ ) ) E V V Z T T E E D E ",
"T.X.E D K P I _ I F D I ) K B D V K K V V P ] }  .8.] N 7 l c H c z N I [ _ _ ) ) I ) I [ [ ) [ 6.i.e.2._ E V V V E ) ) ) T V m ",
"L.;.A S D [ _ _ F S C N V K U U K V V v c V ] ] ] U N l , 7 M P U S F I I I F F _ _ ) _ U P V K [ r.r.q._ D b v V ) { { { ) N N ",
"H._ j F I [ } <.I S z b V V ) ) U P V N c V P P P V N l l N I _ I I I Y 3.I A S Z _ [ [ [ P M M _ 8.r.6.=.I N b ) } i.O.i.{ B N ",
"L.^ j I 8.6.f.2.Y S z b N V P ) ) ) P V V N V N N V V N V P [ [ Y I #.1.1._ S C F E ' 5.;.] V V ) 2.1.9.1.} S K ..f.J.f.f.o.K K ",
"Z.V C I q.w.k.i.I S z b v v D E ) ) ) D V N b v N K P U ) ] { 8.1.<.1.3.4.=.Z C V E ' 2.8.} U D I _ } :.1._ K P 9.J.J.J.f.{ L K ",
"L.^ Z =.r.r.r.e.I z z z v b D E F D V V m b b b D ) ` [ } } } } =.=.} ;.*._ Z Z E E ` ' ' ] D D ) ` ' _ E E N V  .G.J.O. .K 9 7 ",
"I.] W 1.r.r. .[ I z s z b m m m m b m V b m V V ) } } 8.5.| 2.} [ _ _ _ ` I E F W W ` W D V D D _ [ ) Z f a 7 M ] e.O./ w < $ > ",
"T.o._ 1.r.q.Y U S z z z b m Z D m m b b V V E E ) } } } } } ` ) _ ) ` _ _ E W E ` ' W D V V I I ` ' E h : : , v U .. .J 8 > * < ",
"T.} _ <.<.[ I K c z a s g n D Z V D V D E E ] ) ) E V E V V N V V P E ) E _ E E W ' ' _ E E ` _ _ _ E m f 3 : 7 K  . .J 0 8 G L ",
"T.} F _ [ I I V z z z z g m D E E E F E ) _ <.[ P v v f 1 1 , l c V P I _ E E E ' ' ' ' ` [ [ ' _ E E V m f 1 7 H ] ] B J L  .O.",
"I.] b _ I U } ] U z S S S I _ _ _ _ ) P ) ` ;.[ V a 1 1 l v M N K P ] [ } ,.} ' ' ,.*.` ) _ [ [ ] E E D D V v l M M B 9 G /  .f.",
"V.M a N U ..8.8.[ P _ _ } } =.} ` _ Y I P I [ [ V l 7 c V U ) [ ....q.e.a.f.5.5.2.2._ _ I P _ _ ) E E E E V V v M M 7 8 0 L X.f.",
"B.7 # v } ..J.f.} I Y :.e.3.<.[ _ I I S V P ] ) N l l H ) [ [ o.q.e.e.g.g.k.h.p.i.*.` P V K I Y [ ` _ ) E E E V v , < > 7 K { ..",
"B.> O N ..r.J.J.i.[ #.6.w.6.[ U I I U S V P U I N x z P ] ] U I ] ] ..q.q.r.d.i.2.} I N v M U Y [ 6...} U _ ) D b < = = < 9 J / ",
"M.4 + U q.J.J.J.i.[ [ 0.w.[ I V V I S V N K Y Y K N V I Y P b l G K U Y [ ..i.i.1._ F l a x K [ e.h.a.<.[ _ _ F b ; = < > < < v ",
"B.7 y U r.J.J.g.9.} _ 6.6.) V z M I K S V P I I I S D [ [ D z p l x H H P [ <.:.2.[ D z p x V Y 8.g.g.8.[ ` _ ) n a < , ; > = = ",
"N.M b  .r.f.i.+.} [ _ [ [ P z x N P I U N D P F D I I <.1._ b z l x H K U U } [ ;._ I D b v c U ] 9.8...<._ _ Z m b M N B 9 > > ",
"A.L V } a.e.[ ] ) _ ) ) P V l x V ) [ I F P D D F F _ 1.1.*.D b M M V K ) _ W ' _ %._ I D S z z V U [ [ <._ D C N S V K K M < 4 ",
"A./ V <.e. .) B V E D D D V v b P [ [ _ P D D D D ) %.;.*.%.F D N N V V D E ' ' *.%.%.@.D S z l z S Y Y U I z s z V K ) ] J 7 8 ",
"S./ m _ o.[ T V V V V D D V V E ` *.2.[ _ F D V Z F W _ _ W W W F V K V E ) ' *.:.3.%.W S z p p z P I I P z y - p z K U ] J x 7 ",
"S.] b P ] ) B B m m m V E T ) ) } 2.2.;.[ _ E D E W W F A F W W E P D V E ) *.*.3.5.%.F C z p x S I U V b p O X p z K U ] L M 9 ",
"I.] h D _ U K K N b N V ) ) E ) ` [ ;.} ' W _ E _ W W E E W E E D D S N b D F _ ' *.W Z b g z b P Y U N 8 = X O 1 B U K U L M l ",
"L.] k Z P ) ) ) V b N P ) K K V P _ _ ' ' ' ' ' ' ' ' ` ` E V n V N c l a z S F W W W S b b S ) Y [ ) n > @ o o l K ) ) K V N N ",
"I.] k W _ [ ] { P V N K P K K F I ) ' *.5.2.*.2.} 2.' } ` ) T T N S c z l z N F F F Z V b m ) ' } } ] M > $ . $ 9 ) ) P B N v v ",
"L.' R W ;.<.} } P K N N V N V K ) ` } s.d.d.a.5.5.a.5.5.} { ` ) P N c c c S F _ _ _ F Z m F ` 2.2.2.] B ; o . $ M K ] V M v 7 , ",
"L.} W ;.8.9.5.} [ P V z x M N K I [ 5.k.P.n.k.d.d.d.s.i.5.+.+.{ P V N N S I _ =.%._ _ D Z F } 2.i.i. .v > $ $ % M L ] H l 7 > > ",
"R.5.! ;.:.} | } } [ I N x M V K U [ i.J.Y.P.h.d.d.k.d.i.i.2.i.o.I N M V I Y ;.:.=.%.W D D ) *.i.i.i.[ V 7 % $ < M K K G 7 5 = & ",
"E.s.! _ _ ) ) ' } 2.[ U K K K K P [ 8.g.P.n.k.g.g.d.f.f.i.i.i.o.U N N N P _ [ 1.%._ _ D D ` :.1.i.i.[ V 7 , 5 7 M G H M 7 5 & & ",
"W.s.W F I D T ) [ 8.9.[ U H K U U [ 6.g.k.c.g.d.g.i.f.i.i.8.o.o.U N N V P _ [ [ [ ` E D E _ 6.r.i.9.[ V x 7 x M M G M x l 5 , , ",
"E.i.W W I V V T I [ [ [ Y I P P _ ] q.i.i.d.g.i.t.} } } { } [ ) P V V K P ) ] _ _ _ ) I _ [ 2.i.8.9.<._ N N N M M 8 8 x l 7 7 5 ",
"L.2.W W _ D D V N N I ) [ Y P K [ [  .9.i.g.g.i.} ] U U ) K V V V K P K P E I ) ) ) _ _ [ <.1.9.8.2.[ [ U K L M M 7 7 7 x x x x ",
"L.` R W _ _ E V v v m _ [ [ P V [ [ 8.} } 8.i.o.[ V V V V N v v N K K P D V D D ) _ ) _ *.=.=.*.<.<.[ [ ) U U J 8 7 7 v N V N N ",
"C.) k _ } ' E m v a b ) [ _ D P ` <.2.2.} <.} } E v v b m b v v N N V N V V V V V P I I _ _ I _ Y [ I U P U U B v 7 7 N K K V U "
};
