/* XPM */
static char *_ad9926b9c5e457d8dd653811c1325b5kIFfH1R7wTt14kTr[] = {
/* columns rows colors chars-per-pixel */
"64 64 148 2 ",
"   c #281E10",
".  c #2C220F",
"X  c #2E2314",
"o  c #2F2A17",
"O  c #2E2418",
"+  c #322614",
"@  c #352A16",
"#  c #392A16",
"$  c #322719",
"%  c #362B1A",
"&  c #3A2E1C",
"*  c #3D311D",
"=  c #342C22",
"-  c #3B2F21",
";  c #3E3221",
":  c #402E1D",
">  c #41331E",
",  c #42391F",
"<  c #48391E",
"1  c #422E21",
"2  c #433522",
"3  c #483722",
"4  c #463925",
"5  c #4B3B25",
"6  c #463A28",
"7  c #4B3D29",
"8  c #523D24",
"9  c #523F29",
"0  c #4E4126",
"q  c #4F4129",
"w  c #514127",
"e  c #54442B",
"r  c #59462C",
"t  c #5D4B2D",
"y  c #5F502F",
"u  c #554531",
"i  c #574830",
"p  c #5E4B31",
"a  c #624E2D",
"s  c #64502E",
"d  c #6A522E",
"f  c #634E32",
"g  c #665232",
"h  c #6A5534",
"j  c #655837",
"k  c #6D5836",
"l  c #665438",
"z  c #6B5639",
"x  c #6E5939",
"c  c #705735",
"v  c #715A36",
"b  c #725C3A",
"n  c #795F3D",
"m  c #746035",
"M  c #76613C",
"N  c #7C623E",
"B  c #795F41",
"V  c #776341",
"C  c #7D6341",
"Z  c #81653E",
"A  c #856A3C",
"S  c #8C6D3D",
"D  c #906E3E",
"F  c #8D713F",
"G  c #94743F",
"H  c #816542",
"J  c #846941",
"K  c #8A6E44",
"L  c #8C6E43",
"P  c #926F41",
"I  c #8E7242",
"U  c #8E7143",
"Y  c #8F7349",
"T  c #8F724A",
"R  c #8F7549",
"E  c #8E7148",
"W  c #907140",
"Q  c #957543",
"!  c #927045",
"~  c #917247",
"^  c #947346",
"/  c #927547",
"(  c #947546",
")  c #977447",
"_  c #977747",
"`  c #937344",
"'  c #987745",
"]  c #987646",
"[  c #997746",
"{  c #997645",
"}  c #937845",
"|  c #957846",
" . c #987845",
".. c #9E7B47",
"X. c #9A7946",
"o. c #947348",
"O. c #937548",
"+. c #957449",
"@. c #94764C",
"#. c #947549",
"$. c #98744D",
"%. c #98774E",
"&. c #997749",
"*. c #967A4A",
"=. c #97794A",
"-. c #997948",
";. c #9B7B49",
":. c #9B7A4B",
">. c #9E7B4B",
",. c #9B7C4B",
"<. c #9E7D4B",
"1. c #9E7E4B",
"2. c #99784D",
"3. c #9B7B4D",
"4. c #9E794D",
"5. c #9C7B4D",
"6. c #9B7D4C",
"7. c #9C7C4D",
"8. c #9C7D4D",
"9. c #9E7D4D",
"0. c #9F7D4C",
"q. c #9F7E4D",
"w. c #9F7C4F",
"e. c #9C7B4B",
"r. c #9F7E50",
"t. c #9E7F51",
"y. c #A07E4B",
"u. c #A17F4B",
"i. c #A27F4A",
"p. c #A17F4E",
"a. c #A47F4E",
"s. c #A17E4C",
"d. c #A27E51",
"f. c #9F814C",
"g. c #9F8051",
"h. c #A2814E",
"j. c #A8824D",
"k. c #A8864E",
"l. c #A9834D",
"z. c #A38351",
"x. c #A38350",
"c. c #A38252",
"v. c #A58250",
"b. c #A48251",
"n. c #A98554",
"m. c #AA8854",
"M. c #AB8954",
"N. c #B78D54",
/* pixels */
"4 4 2 7 h k g h k k g b &.w.x.T * # & > x v l b ) [ 5.S 2 ; * 2 l h g d g h g h g g d g C H C N k l x x Z N N N h g g k 6.w.f.3.",
"4 6 2 7 h k g h k k l b :.y.x.T * % % 2 x b h b ` | 1.S * ; * 2 g g g g g g h g d h f h B N N n x k k k N Z Z N h h g k 6.w.1.@.",
"6 6 2 7 h h h h k k l b y.v.m.@.* @ & > k h l b ....a.W > - & 2 s d a a h h h h g h g g n B N n x x x b H N N N h z g v w.y.1.3.",
"4 6 4 6 h h g g k k l v r.5.x.~ * & % 2 v b h v R | :.K > ; & 2 g g g d g h g g g g g g Z Z H N x g x x C N Z N g g y x w.y.1.%.",
"; * & 2 g d s g x b b j > * > > > ; % 6 ) =.3.L 3 4 4 0 y g t h O.) 1.L > * > 2 h g f c %.3.r.T 0 4 5 e N N J b 0 0 3 r @.[ [ o.",
"* * * 2 g d a g x b V l O   . + ; ; % 7 :.y.j.I & = o * h k d v 1.y.k.~ & @ # & h c f v ,.w.x.O.4 4 2 0 V A N b 4 6 ; e +.[ ) P ",
"; * * 3 g d s g b x V h # @ # # * ; $ 4 3.:.y.I 2 * * 3 d g a k 3.3.x.I * % & * g h f c ,.1.c.@.0 4 3 e C H C M 5 5 2 e Q [ ) ~ ",
"2 * & 2 g g y d b x b h @ @ @ & > * % 4 ..s.f.P ; & * 3 g g a h 3.:.h.F * & % 2 h k f v %.5.d.o.5 4 4 e C C C N 7 5 4 e ) [ | ` ",
"& & % 1 f f p p l d h a > * * 2 l f p h &.a.h.F * & & , g h s z =...w.S * @ % 2 h d g h H Z J V 5 5 2 e V C J b 5 5 2 i *.1.;.~ ",
"# # @ & p f p f s t g t 2 2 ; 4 c c g v $.s.d.P * & & 2 g g s z 3.3.y.F * % % ; h h g g b N C b 7 6 6 w C J C b 5 5 4 e ,.1.,.` ",
"# # % & f f f a g s d t > 2 ; 4 h g f h &.y.v.W * & * > g h s h 3.:.h.I * # % 2 s h g g N N C B 5 5 3 9 V H H b 5 0 2 r 3.y.f.` ",
"& & % : p t t p a s s t 2 ; ; 4 h h g k +.6.f.F ; & & > h h s k 3.:.y.L * % % ; h h g z Z N C b 7 7 6 9 H Z H N 7 < , e t.5.6.o.",
"h h x l 6 6 4 7 f a d t * ; & 6 n H n N H H J n * & & 2 h h s k =...h.W & # % , s k g h +...3.L > & # 5 =.w.f.I 2 ; * 7 C H H H ",
"b b M h 6 ; ; 6 a a g t * ; & 3 C H H B B B C b * & & 2 h h s z ) ..y.L * # % ; d k g k 3.:.x.E # # + 6 w.x.x.+.2 & - 5 n V n B ",
"x x b h 6 ; 2 7 a d d t > - & 3 C H N N C n J b * % # 2 h h s z =.3.y.W & % # ; g k a h [ ..,.U ; # % 3 w.x.v.` 2 ; > 6 C Z C n ",
"k h b l 6 2 2 2 a d f a ; ; & 5 n H C C N C J b * & % 2 g h y z 3.3.a.W * % # ; h h f k 3.3.w.U * # @ 6 3.x.v.` 2 ; & 6 C H C N ",
"h h k g 2 ; ; 4 h k k h f p t g N C N N C C C n g g g g g g g g M M N x ; ; ; ; h h g h 3.5.x.T & % % 4 3.h.h.~ * % # 2 C Z H N ",
"h h k g 2 ; ; 4 v b x k k h h k N N N N N N V N M v x x h j d d z j x g 4 ; ; q k h l b 3.5.x.L * # % 6 ,.1.h.W & @ @ 2 C Z C V ",
"z h k g ; * - 4 k v z z g h d g N V N N N N C N v k z h g g s h j b M j 4 ; ; 4 h h g x ..3.x.T * & $ 3 6.w.v.~ & & % > N H H V ",
"h z k g 2 * * 2 j k k z h s s g N C N N C H N V k j h z g g h g x k M x ; ; * 4 h c g k 3.1.x.o.* % @ 3 6.x.h.W & % % 2 C Z C B ",
"k k k h r i r i l v k h g d s h @.%.&.T h h c h g g g g h h h h k z m g * % % 2 h c l k W Q [ H * & & 2 J J L N 2 * * 2 h k h g ",
"x k k h f f a g k k x h s s s k 5.y.x.=.g g g a s g s g x h h h z h k g * * % 2 h h g h S P Q A * & # 6 B H N x 2 * * 2 g h g a ",
"z z x z p i r t x x x x g s y h 3.w.w.| d l h g d g g g h x h c l j x g * % & ; d k g k P W [ J * & % 2 N H C M * * * 2 g h g g ",
"z k k z a r t y x x x x g g a z 3.1.w.| g g h h g g d g h z k h k x x g * * % 2 g h g k P Q { A * & % 3 N C J b > ; * 3 g d h f ",
"h h h h n n N b w 0 0 e z z g k +.:.1.W a a a a d d h s 2 > & 5 L I G Z : # # 2 M N N b f a l r # @ + > N C H b > * * ; x k x h ",
"h g s h H H J N 3 3 3 7 k x z M +.3.1.I a t a t s h k s % % + > [ { { S # & # 2 C J J N w w r w # + . : V J J b * & & 2 x M b z ",
"h h g h n H C M 5 0 5 0 k v z x =.+.:.~ a a s y g g h s * & # < I Q [ A & & @ 2 N C H b i r i e # + X : C H J b * & & 2 x k x z ",
"g h s h n H C b 5 5 4 0 k k g M +...3.G a t a s g d k y # & @ < W ) ..A & # @ 3 N H H n r r i r % % + : C H J b > & & 2 b M x z ",
"h h g x =.=.w.F > * * 3 h z g x 6.w.x.R 2 > & 5 T { ..J > ; & 3 +.1.h.F & % @ > V Z H n 0 5 7 w a a r a C N J b * & * 2 x b x z ",
"z j g b 6.1.x.` * % % 2 z k g b 6.1.x.` & $ o 3 w.v.n.+.2 * & 8 6.w.j.~ & @ + 2 N Z H b 5 5 3 7 h h k k C Z C M ; * * 2 x b x z ",
"k k h v 3.1.x.I ; % * 2 z k g b 6.w.v.W * % $ 4 3.c.v.o.; ; & 5 3.w.x.~ # @ + 2 N H A b 0 5 7 w g g a d C N J b > * * ; x b M g ",
"h h j k 3...g.W * % & 2 z k h k 6.r.x.~ * @ $ 3 w.y.v.o.2 ; & 7 3.h.j.W & + @ > V H H b 5 5 5 w s d a g C N J M ; * & 4 x b x h ",
"g h g x =...y.~ ; % * 2 x b l b ` ) 1.S * ; ; 6 v n b h > - & 2 v v v k 2 * & 5 P ~ +.A > & & 2 h z h z x k b h * * & 4 V N C n ",
"h h g h +.3.h.W 2 & & 2 B M x V ` W ..S ; ; ; 6 d g g a > > * 2 g h l t 2 2 ; 7 ^ { 1.S & % % * x b k z h h k g * * & 4 N H H C ",
"h h g k 3...x.L ; & % 4 V x x M +...1.F ; - % ; h v k g * & & 2 h z k g 2 ; * 7 ^ { 3.S & # & 2 z m k z h h v g * * % 3 N C N N ",
"g h g v | 3.y.W ; % * ; B x x b } ` ,.I * & & < h h v l ; * & > h h k g 2 ; * 7 ^ Q ..A * # % > z k h h h h v g > * & 4 N Z C N ",
"h g g x 3.1.x.~ 4 ; 4 6 h h h h b M b N A A I Z 3 2 3 7 g g g l h h b g & % @ > +.....S 2 ; * 2 z k j k E W Q A 2 & & 6 C H N N ",
"h h g x t.f.x.O.6 4 4 6 g g g g l l g k 3.s.j.G > - - 2 k m k v h h k f % # X , ~ ..3.S 2 ; ; 4 k j g M &.s.i.P 2 2 & 5 C N C N ",
"h h g b f.f.x.` 6 ; 6 4 g h g h x x g b Q { 6.S 2 * ; 4 h k h h x h b g # @ X > ) ..w.S 2 ; ; 4 k k h k ` [ 3.S 2 & & 7 N N C n ",
"k h d k f.g.z.R q ; 4 q g h g g x x h b Q Q 3.L 2 ; ; 4 z k h h h k k d # @ + > Q 3.:.L ; ; * 4 z h h x ) | ;.S 2 & & 6 N N N N ",
"5 7 6 e C J J N ; ; - 6 h k h g g g g h +.) ,.F * @ @ > g g h s 3 2 > 3 r r 9 f d.d.d.+.> ; * 4 h k g x 3.1.x.W 2 ; ; 7 o.+.+.L ",
"; 2 - 7 M C N v ; * & 2 h v h h g g s h ) ..1.S # + % * s d g t & & % * f f f z d.d.n.&.* - & 4 x k g b 3.f.x.` 2 ; ; w +.:.:.+.",
"4 6 ; 7 N H J b > & * 4 h x h h g h s h ` ..1.S & $ @ * f a d r * * * 2 r f 9 l r.x.n.@.* ; * 3 l k g x 3.:.h.) 2 ; - 7 ) X.{ ~ ",
"4 4 2 7 N H H b 2 ; & 2 k h h h g g s h ` ) 1.S & @ @ ; a d d r * * & 2 f f f f t.v.m.+.* ; & 2 z z g v 3.1.h.~ 4 ; - 7 ) { { ~ ",
"; * & 4 N J C M > & & 2 h h g g x x g b ,.,.h.I ; * - 7 ~ &.3.J # @ # & a a r g r.x.n.~ * % % 2 z k h b 3...,.L * & % 6 3.1...+.",
"* * % 3 N C C M ; * & 4 h z g h x b x B 6.1.x.W 2 ; = q w.v.m.@.@ + @ & f f r g 6.w.n.E * % & 2 k k j b | ) 6.S * @ $ 4 3.h.g.O.",
"* * % 4 N C J v 2 & * , g h g g V x x b 3.1.x.~ 2 ; & 7 w.y.x.O.# $ + & f f e l r.f.n.O.* % & 2 x b g b 3...f.I # # $ 3 3.d.f.O.",
"> * & 4 M C C M > * & > h h g j x x x b 3.:.x.W 2 * - 7 5.h.h.E # $ @ & t f r f t.h.n.` * % # 2 x x g b &...x.I * @ $ 4 3.f.r.T ",
"& & + 3 +.3.w.I & @ @ > d h d g k j h b ,.,.x.W & @ $ > b M N k * & & 2 f d t g ) 3.y.L * % % 2 z k h h d d d d > & % 7 %.1.,.T ",
"& & O 3 w.h.h.Q % + + * g g g d h z h x 3.1.h.I % + + * g g g s 2 * & 2 g d a k ` ..y.S * % % > j k k h t r a r > > & 5 =.w...E ",
"* # $ 2 5.h.j.P % X + * g h s g z h g x 3.1.h.~ # + + & h k k g & & & 2 a d t k | 1.a.G * @ % > z k h h a t a t : * @ 4 3.h.1.O.",
"* & $ 3 6.h.v.~ # @ @ * d g a g z x g v *.f.x.W # + @ # k k k g ; - & 1 d h a h 3.:.h.I * % % 2 z k k g a a a t > # o 5 w.h.w.O.",
"* * * 4 m N n b r u u p g z h h h g g k H Z K N < 3 4 5 x x x z l h g l a a s s v v v d * & % > z h g k I U L L K E / J 8 2 3 < ",
"2 2 * 4 j g l h f f f f k x b j g h g h N N C v 0 0 0 w k b x x v v v b a a a t a p s t ; & % 2 z k g m 3.:.{ &.x.m.N.X.X   + + ",
"2 > * 3 v b x k p i r p c k k k h g g h N N C M 7 4 4 0 b M x x k x b h a s s s d d h y & * # 2 z k h x ` [ Q } g.g.M.) # o # # ",
"2 2 ; 4 x b b h t t t p b b b k h g g h Z N C N 7 5 5 w b b x M z z x h a a y s s s d t * & % > h k s x O.[ ^ Q x.c.M.) # @ & & ",
"& & @ > g k a k L L O.H 3 2 < 7 z k h h N Z C b 5 6 0 0 3 < > w K L P J g d a h E ~ 3.J & # % > d k a g H A A N 8 5 0 5 t s y t ",
"& # @ : g h t k d.d.k.) * % @ > z x h k Z N H n 5 5 0 < & # $ 2 &.:.[ Q h g a v 3.a.v.} # % % 2 a g a g B B H v X O . * k v k g ",
"# & % : h c a h &...i.W ; ; * 2 z k h k C Z H b < 7 7 5 * - % 5 ) Q ) D d g s k 3.:.a.I & % # & g g f g C C J n & % % * d h h s ",
"% & + : d h a k +.;.y.L > & * 2 x x h k V C J M 3 5 5 6 1 * % 3 ` ..| I g g s k :.y.h.o.& # % 2 g d f d C C H n * % % ; g g g d ",
"e r e i g k a g H H J Z 2 - & 2 g g g g k k k h g a d t 2 ; & 2 k M v v x x h h k v M h @ @ + * g h d g h v c h a a t a n V n b ",
"f g f f h h g k n n H b & & & 2 s s s t g h s g k k x g > ; * 2 g g g s z k x z s t g r @ @ + * g h g g g g g g d h h k C H J H ",
"f p f p h d f c B H J v & & & 2 g s s s h h g h h g k g > * & 4 g k h h k k z z d g h a # @ + # g h g g h h h g f f f g H N V n ",
"t p p f g h g h n Z J v > & & 2 s g s d g h h h g h h g ; ; * 2 h k h h k j k z h g k a @ @ + * h h g h h h h g f d f g n C H B "
};
